<?xml version="1.0" encoding="UTF-8"?>
<!DOCTYPE svg PUBLIC "-//W3C//DTD SVG 1.1//EN" "http://www.w3.org/Graphics/SVG/1.1/DTD/svg11.dtd">
<!-- Creator: CorelDRAW -->
<svg xmlns="http://www.w3.org/2000/svg" xml:space="preserve" width="6.4563in" height="2.808in" version="1.1" style="shape-rendering:geometricPrecision; text-rendering:geometricPrecision; image-rendering:optimizeQuality; fill-rule:evenodd; clip-rule:evenodd"
viewBox="0 0 4257.63 1851.74"
 xmlns:xlink="http://www.w3.org/1999/xlink"
 xmlns:xodm="http://www.corel.com/coreldraw/odm/2003">
 <defs>
  <style type="text/css">
   <![CDATA[
    .fil0 {fill:#F15A24;fill-rule:nonzero}
   ]]>
  </style>
 </defs>
 <g id="Layer_x0020_1">
  <metadata id="CorelCorpID_0Corel-Layer"/>
  <g id="_2578294442704">
   <g>
    <path class="fil0" d="M1494.69 1851.74l529.63 -674.08c0,0 529.63,-48.15 770.38,-433.33 0,0 144.44,-48.15 48.14,96.29 0,0 -337.04,288.9 -481.48,337.05 0,0 -96.3,674.08 -866.67,674.08z"/>
    <path class="fil0" d="M242.82 792.47l409.26 650.01 144.45 0c0,0 96.3,48.15 -96.3,48.15l-288.9 0c0,0 -288.89,48.14 -288.89,-144.45 0,0 0,-96.3 144.44,-240.74 0,0 0,-48.15 -192.59,96.3 0,0 -240.75,288.9 144.45,385.18 0,0 144.45,48.15 625.92,48.15l323.56 0c0,0 -516.15,96.3 157.93,216.67l281.18 -529.63 -570.08 24.08c0,0 -32.73,0 -160.82,-24.08l-514.23 -529.63 -119.41 0z"/>
    <path class="fil0" d="M1326.65 673.06c-0.96,0.49 -0.49,-1.44 -1.45,-1.44 1.45,-2.41 4.33,0 1.45,1.44z"/>
    <path class="fil0" d="M1327.13 666.81c-1.92,-0.48 -0.96,-3.37 0.96,-2.88 1.45,0.48 0.49,2.88 -0.96,2.88z"/>
    <path class="fil0" d="M1330.98 670.17c-0.48,0.49 -1.45,-1.44 -0.48,-1.92 0.95,0 0.95,1.45 0.48,1.92z"/>
    <path class="fil0" d="M1334.35 638.4c-0.48,-0.49 -1.44,0 -1.92,0.49 -1.45,0.96 -1.45,-1.93 0,-2.41 0.97,-0.49 3.37,0 1.92,1.92z"/>
    <path class="fil0" d="M1336.28 668.25c0,2.41 -3.85,3.86 -2.88,0 0,-1.45 6.73,-2.41 2.88,0z"/>
    <path class="fil0" d="M1342.06 671.62c-1.92,1.44 -4.82,-1.92 -1.92,-2.89 1.45,-0.48 3.85,0.96 1.92,2.89z"/>
    <path class="fil0" d="M1355.05 662.95c-0.96,0.49 -3.85,2.89 -3.85,0 0.48,-0.49 5.29,-3.37 3.85,0z"/>
    <path class="fil0" d="M2040.96 201.35c1.88,-0.88 1.49,1.11 3.66,-0.73 -1.36,-1.09 -2.81,-2.03 -4.18,-3.12 1.23,0.87 1.64,2.45 0.41,2.8 -0.86,1.46 -2.41,2.66 0.11,1.04z"/>
    <polygon class="fil0" points="2364.14,715.72 2363.77,715.91 2364.25,715.91 "/>
    <path class="fil0" d="M2313.41 591.34c-0.62,2.29 -2.95,4.08 -2.91,6.92 -1.22,0.16 -2.96,0.61 -2.87,2.29 0.09,2.76 1.69,7.61 -1.61,9.83 -2.7,2.24 0.56,4.25 0.84,6.2 -2.22,2.5 -5.28,10.07 -7.44,3.76 -1.06,0.45 -3.77,-0.17 -3.66,2.65 -1.77,4.45 -2.35,0.72 -3.49,-1.19 -1.88,3.77 -5.38,4.7 -9.1,2.54 -0.86,-1.26 -3.01,-2.04 -2.81,0.27 0.8,0.84 2.09,1.21 0.94,2.59 -2.48,0.72 -4.01,3.43 -6.25,5l-1.09 -0.42c-2.57,-1.94 -2.79,-3.54 -1.2,-6.39 -3.96,-3.24 -12.18,1.83 -17.48,1.81l-0.52 -0.61c-2.34,-0.27 -0.57,3.02 -1.25,3.69 -2.35,-1.51 -8.66,0.03 -8.45,-1.97 -0.44,-1.84 4.19,-2.12 5,-4.02 2.19,-1.82 5.37,-3.04 7.14,-5.41 -0.23,-0.7 0.79,-0.54 1.09,-0.51l0.27 0.48c0.34,-0.04 1.19,-0.07 1.51,0 0.42,-1.46 2.81,0.69 3.75,-0.84 2.57,-0.05 5.53,-1.78 7.32,0.16l0.74 -0.48c5.36,1.97 3.36,-2.77 7.85,-5.72 0.86,-0.52 0.52,-3.59 1.36,-4.21l0.62 0.26c3.5,0.94 6.71,-0.14 9.83,-1.7 1.5,-0.96 2.32,-2.98 2.71,-4.64 3.54,-0.97 4.26,-4.77 5.99,-7.19 2.07,-4.64 0.04,-5.68 1,-9.57 -0.42,-1.5 -1.33,-2.2 0.04,-3.32 -0.13,-0.37 -0.06,-1.23 0.67,-1.14 3.25,0.31 -0.54,-3.35 2.2,-2.56 4.47,3.83 1.21,-1.66 4.32,-1.61 2.13,6.2 7.33,11.64 4.95,15.09zm-45.12 40.07c-1.85,3.81 -5.05,0.23 -6.86,1.68 -1.81,3.93 -7.44,7.57 -7.03,0.45 -0.26,0 -1.67,-0.09 -1.67,-0.09 0.28,-0.34 2.28,-1.41 2.59,-1.57 0.25,-4.51 5.4,-1.4 7.29,-4.69 1.01,-0.43 2.45,-0.15 3.43,-0.72l0.99 0.95c0.55,-0.06 1.58,0.69 1.72,1.2 0,0 -0.26,2.55 -0.48,2.8zm-17.11 6.74c-2.6,9.24 -7.86,14.5 -7.23,7.91 -1.93,2.64 -1.78,3.48 -3.2,0.14 0.09,-2.14 -0.23,-3.95 1.12,-5l1.25 -1.8c-0.55,-0.59 -1.08,-2.28 -1.25,-3.05 -1.18,0.6 -0.9,3.53 -3.34,2.49l0.16 -0.54c-0.29,-0.77 -1.65,-2.04 -1.26,-2.79 -1.41,-2.3 4.09,-3.49 5.41,-5.42 2.69,-0.15 4.32,1.65 6.94,1.67l0.14 1.26 2.09 1.8c0.55,0.48 -0.41,3.11 -0.83,3.32zm-32.76 -3.75c-1.93,0.15 -1.51,0 -1.93,-0.96 0.2,-3.85 7.83,-0.49 1.93,0.96zm-35.21 74.79c-13.62,-3.34 6.63,-32.58 6.04,-14.89 -2.26,3.93 -2.73,8.32 -6.04,14.89zm134.88 -138.5c-0.85,0.07 -2.18,-0.68 -2.71,-1 -1.84,-1.71 -6.28,-2.99 -7.45,-0.2 -1.76,0.78 -2.89,-3.81 -3.79,-0.53 -0.49,2.43 5.26,1.98 3.69,4.59 -1,1.28 -2.53,-0.55 -3.17,0.67 0.38,0.58 -0.31,0.95 -0.42,0.38 -1.71,2.78 -3.42,0.01 -2.24,-2.14 -0.09,-1.55 -2.14,-2.09 -1.98,-4.01 1.24,-2.17 4.24,-2.46 3.49,-5.36 0.85,-2.34 3.95,1.05 5.67,0.21 0.8,-0.72 -0.28,-3.23 0.26,-4.17 2.71,-0.48 1.77,-2.84 2.25,-4.93 -3.96,-9.29 -8.34,-18.37 -12.6,-27.52 -10.54,11.29 -20.05,29.67 -35.86,38.71 -3.45,4.83 -11.45,-3.66 -12.17,-3.33 -4.58,6.66 -14.32,9.76 -14.99,19.14 -3,3.83 -11.03,2.89 -11.85,9.98 3.72,4.98 6.94,8.66 10.61,13.33 2.82,5.49 0.32,12.11 4.37,16.55 -3.75,-2.13 -6.49,4.01 -9.36,2.18 -1.03,-1.37 -8.53,3.41 -10.71,4.18l-0.11 -2.92c-1.43,2.61 -6.19,5.15 -4.26,-0.32 3.54,-2.64 5.79,-7.01 3.33,-10.92 0.02,0.67 -1.31,-3.7 -2.3,-4.17 6.35,0.99 2.78,-3.43 1.77,-6.55 -3.43,-1.68 -7.49,2.67 -9.67,-1.99 0.6,-5.8 7.43,-12.08 -3.3,-12.08 -6.8,-3.35 -14.29,6.25 -20.13,6.67 1.3,-1.7 5.75,-3.82 1.68,-5.08 13.87,-16.97 -8.55,-7.5 -13.22,1.13 -1.88,4.59 -9.24,-1.58 -9.37,4.6 3.2,7.39 8.13,0.41 9.26,11.23 5.63,-1.14 9.27,-8.31 14.25,-1.36 7.46,-2.26 9.34,4.9 0.84,3.86 -4.62,2.63 -15.73,9.8 -13.64,14.77 6.72,1.37 6.79,10.2 10.31,14.78 9.37,8.31 1.3,3.82 4.05,9.89 3.62,2.57 -4.4,2.66 -5.2,4.69 -2.08,1.8 3.79,0.18 3.45,1.15 0.63,1.67 1.87,3.64 3.84,1.96 -3.31,4.05 -1.13,12.64 -7.29,13.22 -1.63,1.42 -0.25,4.97 -2.91,5.63 -2.88,-0.21 -1.21,5.28 -3.64,3.95 0.17,3.31 -0.52,3.98 -2.29,4.16 3.89,4.71 -6.15,7.45 -8.95,9.38 1.44,4.63 -4.32,3.56 -6.98,6.35 -3.39,6.36 -10.74,4.93 -15.92,7.18 -2.96,-1.86 -2.6,4.75 -7.7,2.48 -5.12,3.53 -8.5,2.54 -13.64,4.27 -6.65,-0.61 -0.04,7.6 -4.28,6.88 -2.73,-1.86 -3.21,-4.2 -2.07,-7.29 -2.16,-2.75 -5.64,3.09 -8.13,-2.67 -3.38,3.2 -8.65,4.92 -12.13,6.89 1.5,4.75 -5.27,5.03 -5.04,9.41 -0.81,3.32 1.09,5.73 3.97,7.86 0.89,2.96 3.08,5.9 5.61,7.85 6.26,5.13 12.36,11.69 11.4,20.19 24.12,-8.37 47.44,-15.93 69.75,-22.37 -0.96,-6.95 3.95,-12.33 7.94,-6.63 1.65,-1.32 4.41,-1.28 2.84,3.38 67.92,-18.89 126.58,-27.6 172.5,-20.92 -10.89,-49.98 -26.04,-98.36 -44.75,-144.91 -0.4,-0.15 -0.76,-0.31 -0.92,-0.31z"/>
    <path class="fil0" d="M940.62 168.2c-0.19,0.15 -0.38,0.29 -0.58,0.43 0.36,0.8 1.56,1.17 2.29,1.97 4.95,3.08 1.14,-3.26 -1.71,-2.4z"/>
    <path class="fil0" d="M2087.8 238.43c-0.62,-0.57 -1.27,-1.11 -1.9,-1.68 -4.81,2.85 -1.26,2.09 1.9,1.68z"/>
    <path class="fil0" d="M909.74 193.7c13.21,-1.47 17.95,12.7 32.08,8.85 -0.78,-1.22 -12.68,1.59 -9.78,-2.34 -2.34,-1.97 -7.58,-2.81 -8.98,-6.34 3.56,-3.29 11.62,-0.4 15.53,-2.67 5.61,-2.97 11.82,-5.63 19.44,-5.05 -7.9,-1.04 -16.62,-0.08 0.87,-8.1 -8.78,0.24 -13.06,9.13 -27.45,11.65 -10.88,1.05 -9.52,1.37 -11.3,-2.88 -3.21,5.69 -8.88,2.45 -13.48,6.76 1.98,0.86 0.55,0.49 3.08,0.11z"/>
    <path class="fil0" d="M726.23 415.75c4.16,-0.99 10.03,1.2 10.93,-5.34 9,2.08 4.86,-4.02 16.13,-9.39 3.44,1.22 9.66,-0.57 2.67,-2.42 19.49,1.43 -1.28,-6.08 -4.07,0.51 -3.67,0.57 -7.66,7.26 -12.57,5.96 -6.65,-0.78 -10.91,-5.7 -17.56,-6.89 4.23,3.6 12.19,11.37 2.44,9.43 -2.04,1.73 -1.59,6.32 -5.33,4.19 -2.12,0.02 -6.12,3.04 -7.62,-1.39 -0.26,1.26 1.53,3.63 2.67,4.31 4.37,-1.02 7.94,2.37 12.32,1.02z"/>
    <path class="fil0" d="M809.65 290.97c1.42,1.34 5.88,-1.07 5.61,-1.36 -0.52,-1.25 -1.78,-2.08 -0.31,-1.77 4.36,-0.86 -4.95,-2.77 -5.2,-2.6 -0.22,-0.08 -1.32,-1.74 -1.36,-2.26 -1.04,1.11 -2.03,2.27 -3.07,3.38 0.76,0.67 4.72,4.69 4.33,4.61z"/>
    <path class="fil0" d="M962.7 158.87c1.43,0.84 1.39,2.1 3.14,2.14 1.41,-3.2 -5.22,-3.21 -7.43,-6.13 -0.31,0.21 -0.6,0.47 -0.9,0.68 0.28,0.74 0.98,0.75 1.65,1.78 0.38,1.46 2.39,0.86 3.54,1.53z"/>
    <path class="fil0" d="M865.38 385.62c-2.41,-0.49 -8.19,-1.92 -1.45,0.96 0,2.41 2.41,0.48 3.37,0.48 -0.96,-0.48 -1.92,-0.96 -1.92,-1.44zm206.56 -216.19c1.45,0.96 1.93,1.92 2.41,2.88 2.41,0.49 12.04,4.82 13.48,4.82 -6.25,-3.85 -13.48,-5.78 -15.89,-7.7zm42.37 188.74c-0.48,0.49 -1.44,0.96 -1.92,1.92 0.96,-0.48 2.41,-1.44 3.37,-2.4 -0.49,0 -0.96,0.48 -1.45,0.48zm169 -78.96c-1.44,0 -1.92,1.45 -0.96,1.92 0.96,-0.48 1.45,-0.96 1.92,-0.96l-0.96 -0.96zm104 194.04c0,0.49 0.96,0.49 1.45,0.97l0 -0.49c0,-0.49 0.48,-0.96 0.96,-0.96 -0.96,0 -1.45,0.96 -2.41,0.48zm2.41 -0.48c1.44,-1.45 2.89,-2.41 2.89,-3.86 -0.48,0 -1.92,1.93 -2.89,3.86zm0 0c1.44,-1.45 2.89,-2.41 2.89,-3.86 -0.48,0 -1.92,1.93 -2.89,3.86zm-2.41 0.48c0,0.49 0.96,0.49 1.45,0.97l0 -0.49c0,-0.49 0.48,-0.96 0.96,-0.96 -0.96,0 -1.45,0.96 -2.41,0.48zm-104 -194.04c-1.44,0 -1.92,1.45 -0.96,1.92 0.96,-0.48 1.45,-0.96 1.92,-0.96l-0.96 -0.96zm-169 78.96c-0.48,0.49 -1.44,0.96 -1.92,1.92 0.96,-0.48 2.41,-1.44 3.37,-2.4 -0.49,0 -0.96,0.48 -1.45,0.48zm-42.37 -188.74c1.45,0.96 1.93,1.92 2.41,2.88 2.41,0.49 12.04,4.82 13.48,4.82 -6.25,-3.85 -13.48,-5.78 -15.89,-7.7zm0 0c1.45,0.96 1.93,1.92 2.41,2.88 2.41,0.49 12.04,4.82 13.48,4.82 -6.25,-3.85 -13.48,-5.78 -15.89,-7.7zm42.37 188.74c-0.48,0.49 -1.44,0.96 -1.92,1.92 0.96,-0.48 2.41,-1.44 3.37,-2.4 -0.49,0 -0.96,0.48 -1.45,0.48zm169 -78.96c-1.44,0 -1.92,1.45 -0.96,1.92 0.96,-0.48 1.45,-0.96 1.92,-0.96l-0.96 -0.96zm104 194.04c0,0.49 0.96,0.49 1.45,0.97l0 -0.49c0,-0.49 0.48,-0.96 0.96,-0.96 -0.96,0 -1.45,0.96 -2.41,0.48zm2.41 -0.48c1.44,-1.45 2.89,-2.41 2.89,-3.86 -0.48,0 -1.92,1.93 -2.89,3.86zm0 0c1.44,-1.45 2.89,-2.41 2.89,-3.86 -0.48,0 -1.92,1.93 -2.89,3.86zm-2.41 0.48c0,0.49 0.96,0.49 1.45,0.97l0 -0.49c0,-0.49 0.48,-0.96 0.96,-0.96 -0.96,0 -1.45,0.96 -2.41,0.48zm-104 -194.04c-1.44,0 -1.92,1.45 -0.96,1.92 0.96,-0.48 1.45,-0.96 1.92,-0.96l-0.96 -0.96zm-169 78.96c-0.48,0.49 -1.44,0.96 -1.92,1.92 0.96,-0.48 2.41,-1.44 3.37,-2.4 -0.49,0 -0.96,0.48 -1.45,0.48zm-42.37 -188.74c1.45,0.96 1.93,1.92 2.41,2.88 2.41,0.49 12.04,4.82 13.48,4.82 -6.25,-3.85 -13.48,-5.78 -15.89,-7.7zm0 0c1.45,0.96 1.93,1.92 2.41,2.88 2.41,0.49 12.04,4.82 13.48,4.82 -6.25,-3.85 -13.48,-5.78 -15.89,-7.7zm42.37 188.74c-0.48,0.49 -1.44,0.96 -1.92,1.92 0.96,-0.48 2.41,-1.44 3.37,-2.4 -0.49,0 -0.96,0.48 -1.45,0.48zm169 -78.96c-1.44,0 -1.92,1.45 -0.96,1.92 0.96,-0.48 1.45,-0.96 1.92,-0.96l-0.96 -0.96zm104 194.04c0,0.49 0.96,0.49 1.45,0.97l0 -0.49c0,-0.49 0.48,-0.96 0.96,-0.96 -0.96,0 -1.45,0.96 -2.41,0.48zm2.41 -0.48c1.44,-1.45 2.89,-2.41 2.89,-3.86 -0.48,0 -1.92,1.93 -2.89,3.86zm0 0c1.44,-1.45 2.89,-2.41 2.89,-3.86 -0.48,0 -1.92,1.93 -2.89,3.86zm-2.41 0.48c0,0.49 0.96,0.49 1.45,0.97l0 -0.49c0,-0.49 0.48,-0.96 0.96,-0.96 -0.96,0 -1.45,0.96 -2.41,0.48zm-104 -194.04c-1.44,0 -1.92,1.45 -0.96,1.92 0.96,-0.48 1.45,-0.96 1.92,-0.96l-0.96 -0.96zm-169 78.96c-0.48,0.49 -1.44,0.96 -1.92,1.92 0.96,-0.48 2.41,-1.44 3.37,-2.4 -0.49,0 -0.96,0.48 -1.45,0.48zm-42.37 -188.74c1.45,0.96 1.93,1.92 2.41,2.88 2.41,0.49 12.04,4.82 13.48,4.82 -6.25,-3.85 -13.48,-5.78 -15.89,-7.7zm15.89 7.7c-6.25,-3.85 -13.48,-5.78 -15.89,-7.7 1.45,0.96 1.93,1.92 2.41,2.88 2.41,0.49 12.04,4.82 13.48,4.82zm24.56 182.96c0.96,-0.48 2.41,-1.44 3.37,-2.4 -0.49,0 -0.96,0.48 -1.45,0.48 -0.48,0.49 -1.44,0.96 -1.92,1.92zm169.97 -78.96c0.96,-0.48 1.45,-0.96 1.92,-0.96l-0.96 -0.96c-1.44,0 -1.92,1.45 -0.96,1.92zm106.41 192.6c0,-0.49 0.48,-0.96 0.96,-0.96 -0.96,0 -1.45,0.96 -2.41,0.48 0,0.49 0.96,0.49 1.45,0.97l0 -0.49zm0.96 -0.96c1.44,-1.45 2.89,-2.41 2.89,-3.86 -0.48,0 -1.92,1.93 -2.89,3.86zm426.12 -210.9c-3.37,1.93 -5.29,3.86 -8.19,6.75 -0.48,0.48 -3.85,0.96 -5.29,0 -0.48,0.48 -0.96,5.77 -2.88,2.4l-1.45 0.49c0.48,9.15 -9.15,11.56 -15.41,20.7 -4.81,0.97 -4.33,13 1.93,16.37 3.37,4.81 14.93,10.1 2.41,7.7 -4.83,0.48 -10.12,2.4 -15.41,-1.92 -0.95,-1.45 -5.29,1.92 -4.33,-1.93 6.74,-2.4 1.45,-0.96 0,-4.33 -6.25,-1.92 -0.96,-0.49 -2.88,3.37 -0.96,1.92 -6.26,-3.86 -1.93,-2.41 1.93,-4.81 -13.48,1.45 -6.26,-9.15 2.89,-0.48 5.3,0.97 5.78,-3.37 6.26,-4.33 -3.37,-1.92 -0.96,-5.29 9.15,-2.41 -1.44,-1.92 11.07,-6.25 -0.49,-5.78 -4.82,-0.49 -1.92,-4.82 2.41,-0.96 6.73,-3.86 8.18,-5.78 2.41,-2.88 -0.48,-2.4 1.45,-4.33 4.33,-1.44 2.88,-2.41 2.4,-6.74 5.79,-0.48 2.42,-0.48 7.71,-3.85 3.37,0 1.92,2.89 3.37,-0.49 3.37,-3.37 5.78,-1.44 7.7,-5.78 3.37,1.45 8.67,-2.41 9.64,-0.96 7.7,-6.26 9.62,-0.49 19.74,-3.85 6.25,-1.45 12.03,-2.89 15.88,-6.26 4.83,-2.88 18.31,-4.81 15.9,2.89 -10.6,9.63 -32.27,10.1 -46.22,16.84zm-66.93 -62.59c2.41,-2.41 8.67,-0.97 3.86,1.44 -0.48,0.49 -7.22,-0.96 -3.86,-1.44zm-5.29 -1.93c0,-2.41 3.37,-1.92 3.86,-0.96 -0.49,1.45 -3.86,3.37 -3.86,0.96zm2.41 136.75c-2.89,3.85 -15.88,5.29 -11.56,-1.92 1.45,-6.26 18.3,-1.45 11.56,1.92zm-13.96 -135.79c-2.41,-1.44 -0.49,-3.37 0.48,-4.81 -6.26,-1.45 3.86,-0.97 1.44,-2.89 -5.77,-3.85 7.24,-3.37 2.91,0.96 5.78,1.45 2.41,-2.88 5.78,-4.33 5.29,-0.96 7.7,-1.44 12.03,1.45 3.37,0.48 -1.92,3.37 -3.37,2.88 -3.85,0.49 -5.77,1.45 -7.22,2.41 -7.7,-1.92 -3.37,5.78 -12.04,4.33zm-5.78 -8.18c-6.75,3.85 -4.33,1.44 -10.6,0.48 0.49,-1.92 23.12,-3.85 10.6,-0.48zm1.92 6.74c-0.96,-0.96 -2.41,-1.45 -2.41,-1.45 2.41,-3.86 5.78,1.92 2.41,1.45zm22.63 -14.45c2.89,1.45 -1.45,1.93 -2.88,2.42 -1.93,-1.46 1.44,-2.42 2.88,-2.42zm11.55 11.56c1.45,-0.96 3.86,-0.96 4.82,0 6.74,5.78 -13,3.86 -4.82,0zm10.12 -1.45c-0.49,1.45 -4.82,0.49 -2.89,-1.44 0.49,-0.49 2.89,0.48 2.89,1.44zm16.84 3.86c0.49,3.86 -5.77,2.41 -8.18,1.92 -1.45,-2.4 7.7,-6.74 8.18,-1.92zm-16.84 -11.07c0,-1.93 3.84,-1.45 5.29,-0.48 2.88,-2.89 9.62,3.85 11.07,1.44 -4.82,-4.33 2.88,-0.96 4.82,-0.96 1.92,-1.93 4.81,-2.89 5.3,0 5.29,6.74 -5.3,0.96 -6.74,2.89 -1.44,2.41 -9.15,3.37 -12.52,1.93 0.48,-1.45 0.96,-1.93 -2.41,-1.45 -2.89,0 -7.22,0.96 -7.7,-0.96 3.37,-2.41 11.56,-0.96 2.89,-2.41zm7.22 -5.29c0.48,-0.49 6.25,0 5.3,1.44 -0.97,0.49 -7.71,2.41 -5.3,-1.44zm7.7 0c7.22,0.96 -0.48,-1.45 3.38,-3.37 1.92,-0.96 10.1,0.96 6.73,3.37 -5.78,-3.37 -0.96,2.89 -5.29,3.36 -1.92,0.49 -10.59,-4.32 -4.82,-3.36zm10.6 -7.23c1.92,-0.49 9.63,-0.49 5.29,1.45 -2.41,0.96 -12.51,-0.49 -5.29,-1.45zm13.47 10.59c1.46,-0.48 8.19,-1.92 4.34,1.93 -2.89,2.41 -11.07,0 -4.34,-1.93zm-1.44 3.86c5.29,-0.48 16.85,-1.44 6.26,4.82 -6.75,4.33 -22.16,-3.37 -6.26,-4.82zm-10.11 -5.78c-2.41,0 -0.96,-2.88 0,-2.4 3.86,-1.93 4.82,3.36 0,2.4zm-3.85 14.45c-4.83,5.29 -3.86,-0.97 -6.75,-2.89 2.41,-0.96 19.75,-1.45 6.75,2.89zm5.78 2.4c6.73,-2.4 4.32,6.26 -1.46,0.97 -0.95,-0.97 1.46,-0.97 1.46,-0.97zm19.25 -21.66c1.44,0.96 -4.34,1.44 -2.89,-0.49 0,0 1.92,0 2.89,0.49zm9.15 -1.92c0.96,2.4 -8.66,1.92 -8.66,0 1.44,-1.45 7.22,0 8.66,0zm3.36 8.18c14.45,-2.89 4.83,7.7 -5.78,6.74 -0.95,-0.96 -6.73,-0.96 -3.84,-2.88 3.37,-3.38 8.18,1.92 9.62,-3.86zm-237.84 25.52c-3.38,-0.48 -10.6,3.37 -13.97,1.93 -1.92,0.96 -4.33,-1.45 -5.78,-2.41 -2.4,0 -7.23,0.96 -9.15,-0.49 -7.7,-1.92 -11.07,-1.92 -1.92,-3.86 0.96,-0.48 3.37,-1.44 6.26,-0.48 3.36,-0.49 -0.97,-2.88 -1.93,-1.92 -6.73,1.92 -13,3.37 -18.29,0.48 -2.41,-3.85 -1.45,-1.92 1.44,-3.85 -0.49,-0.49 -4.33,0.48 -4.81,-1.45 1.92,-0.48 0.48,-5.29 4.32,-2.88 0,0.48 3.38,5.29 4.34,2.41 -0.49,-0.49 -3.37,-2.89 -0.96,-1.93 1.92,0.96 4.81,2.89 3.37,-0.96 -3.86,-2.88 0,-1.45 1.92,-0.96 3.37,0.48 6.25,5.29 8.18,2.4 2.89,-1.44 2.89,3.38 5.78,3.86 0.97,-1.92 1.93,-8.66 5.3,-6.25 2.41,0.48 0,2.4 0,3.86 2.41,1.44 4.82,-2.89 7.7,-2.89 4.33,2.89 20.71,1.44 17.34,8.19 -3.86,1.92 -7.23,4.33 -9.15,7.22zm-15.4 26c-2.89,3.86 -4.82,1.45 -3.37,-1.92 -1.93,2.4 -8.67,3.37 -8.2,0.96 -3.85,0.48 -2.4,-0.96 0.49,-3.37 2.41,-1.92 1.93,-2.89 -1.44,-2.89 -0.97,-5.3 -0.49,-1.45 -3.37,-5.78 -8.67,0 4.32,-3.37 7.22,-2.89 6.74,1.45 -1.45,4.82 10.6,5.78 0.96,1.93 -3.86,1.45 0,2.41 0.96,3.37 9.63,0.49 7.7,3.37 -2.89,0.48 -5.29,4.81 -9.62,4.33zm-27.94 -7.7c-0.95,0.96 -0.49,2.41 -0.49,4.33 -0.47,2.41 -3.85,1.92 -4.81,3.85 -0.49,2.89 -4.81,6.26 -3.86,9.15 0,2.89 -5.77,2.41 -5.77,0.49 -0.96,-1.45 -6.25,-2.41 -4.82,-3.86 1.45,-0.48 8.18,-0.48 2.88,-1.44 -4.81,1.92 -19.74,-5.78 -10.1,-6.74 0.95,-0.48 2.4,1.44 4.32,0.48 -2.89,-3.85 7.71,-2.88 8.67,-3.37 2.88,-0.96 -6.26,-0.48 -7.7,0 -1.45,-0.48 -11.07,3.86 -9.64,-2.4 0,-2.89 11.08,-0.96 13.01,-4.82 0.96,-0.96 3.85,0 4.33,-1.45 0.48,-0.48 0.96,-1.92 0.96,-2.41 -0.49,-0.48 -0.49,0 -1.45,0.49 -0.96,3.37 -10.11,2.41 -6.26,-0.49 0.48,-0.48 0.48,-0.96 0.48,-0.96 -0.48,0 -1.92,0.49 -2.89,0.96 -4.33,-3.36 -0.96,2.89 -3.37,3.86 -2.41,2.4 -6.25,2.4 -9.63,1.44 0,-2.4 -2.89,-1.44 -2.89,-3.36 0.96,-1.93 -2.89,-0.97 -4.33,-2.41 0.48,-3.86 -4.82,-4.82 -0.96,-4.82 0.96,0 5.29,3.37 3.36,0.48 -2.88,-0.96 -0.47,-1.92 0,-3.85 -1.44,-1.92 -2.88,4.82 -4.81,0.96 0.49,-1.92 -2.88,-4.81 -1.44,-7.23l0.95 1.45c0.97,-0.48 6.75,-7.7 5.78,-0.96l2.41 -1.45c2.41,1.45 11.56,-4.33 9.63,0 -0.49,1.45 -10.6,1.93 -4.33,2.41l-0.49 1.93c2.41,-1.45 5.29,2.88 6.74,2.88 -1.45,-3.37 -1.92,-5.78 2.89,-8.19 1.92,-1.44 8.18,10.6 9.14,10.6 2.42,-1.45 -2.89,-3.37 -0.96,-5.29 0.49,-1.45 -2.4,-2.41 -1.45,-4.34 -0.48,-1.44 1.93,-0.96 1.45,-1.92 -3.37,-2.88 1.45,-4.33 2.41,-1.44 2.89,-1.45 8.66,1.44 8.66,4.32 -2.4,4.82 -0.48,4.34 1.92,0.97 4.33,-0.97 3.38,4.82 4.33,6.26 3.37,0 4.34,-0.96 6.74,1.45 1.46,-0.49 4.33,-1.45 2.89,0.96 12.52,3.37 4.33,4.82 -3.37,5.78 -9.14,1.92 -1.92,5.77 -8.19,7.7zm-103.53 263.86l-0.47 0.96c-0.48,5.78 -13,6.74 -1.93,8.66 -2.88,5.29 -11.07,3.37 -14.93,4.33l-2.88 0.49c-0.48,-0.49 -1.92,-1.45 -2.41,-1.45l-0.96 0.96c-3.37,1.45 -8.18,-0.96 -9.63,2.89 -2.4,1.92 -4.32,-0.96 -7.22,0 -12.03,10.11 4.33,-11.07 7.22,-6.74 2.41,0 5.78,-1.45 6.26,-4.33 -1.92,0.96 -3.86,2.41 -5.78,2.41 -1.45,-0.96 -4.33,-0.96 -5.78,-2.41 -1.92,0.48 -5.78,0.96 -3.85,-1.93 2.89,-1.44 6.26,-2.88 6.74,-6.25 -5.29,-3.37 0.96,-6.74 4.81,-5.29 1.93,-1.45 0.49,-5.29 0.97,-6.74 -7.7,-5.78 -0.97,-3.86 -2.41,-7.23 -1.93,-0.48 -2.89,2.41 -5.29,0.96 -10.6,2.41 -1.45,-4.81 -3.37,-6.25 1.44,-0.49 0.48,-1.45 -0.97,-1.92 0.97,-0.96 0.97,-4.82 -0.96,-2.89 -6.74,2.89 -2.88,-0.48 -0.48,-4.33l-0.97 0 -0.48 0c-0.96,0.97 -1.45,3.37 -3.37,2.89 0,-0.49 1.45,-0.96 0.49,-1.92 -6.75,0.96 6.26,-5.3 0.96,-8.19 -0.49,-1.92 0,-5.3 2.88,-3.86l-0.49 -3.37 1.45 0.49c0,0 0.96,-1.93 0.96,-3.86 3.37,1.45 7.23,-0.48 10.12,0.96 1.44,2.89 -2.89,4.33 -4.34,5.78 0.49,0.49 0.96,1.93 0.96,2.41 4.33,-1.45 18.79,-3.37 10.6,5.29l-0.49 1.45c-7.22,10.59 -5.78,6.25 -2.88,7.22 0,0.49 1.92,0 1.45,0.49 0.48,0 1.44,0 1.44,0.49 0.49,0 1.45,0.48 1.45,0.48 1.92,2.89 3.37,6.26 4.82,9.63 5.78,0.96 6.25,5.29 8.66,10.1 2.41,0.97 0.96,3.86 0.49,5.3 3.36,1.45 9.15,-2.89 10.59,3.36l-0.97 0.97zm-45.73 -28.89c1.92,-1.45 5.78,1.92 2.41,1.92 -1.93,-1.92 -0.97,1.92 -2.41,2.41 -2.89,0 -1.45,-3.37 0,-4.33zm-0.96 13.96c-0.96,0.49 -4.33,0.49 -3.86,2.89 3.86,1.45 -0.48,11.55 -0.96,13 -6.74,-0.96 -9.63,4.82 -14.93,5.78 -11.07,0.49 -7.7,-5.29 -1.44,-10.11 -2.89,-2.89 5.29,-4.33 -4.82,-4.82 2.89,-4.33 0,-2.88 -0.96,-6.74 0.49,-1.92 7.22,0.49 9.63,0 0.49,-0.48 1.93,-1.92 2.41,-2.41 -0.48,-0.48 -0.48,-0.96 -0.96,-1.44 0,0 -3.86,0.96 -2.89,-0.96 2.89,-1.45 0.49,-1.45 0.97,-2.41 1.92,-1.92 5.78,-2.41 8.18,0l0 0.48c0.49,-0.96 0.96,-1.44 1.92,-1.92 -1.44,0.49 -3.37,0.96 -3.37,-0.96 0.97,-0.49 4.82,0.49 4.82,0.49 4.33,-0.49 10.6,5.77 6.26,9.14zm-289.86 -169.48c0.96,1.44 -1.92,2.41 -2.88,1.44 -2.89,-0.48 1.45,-4.33 2.88,-1.44zm7.23 4.82c1.92,1.44 -5.3,0.48 -3.86,-0.49 0.96,-1.45 2.89,-1.45 3.86,0.49zm-5.3 -3.86c-0.48,-0.49 -2.4,-2.88 -2.4,-2.88 1.44,0 6.25,2.4 2.4,2.88zm-7.22 -4.82c0.96,-0.96 1.92,0.96 1.44,1.45 -0.48,1.45 -2.88,-0.96 -1.44,-1.45zm-2.41 6.26c-0.49,-1.93 2.41,-3.37 2.41,-0.49 0.48,2.41 -3.37,1.93 -2.41,0.49zm195 -11.56c-0.95,1.93 -10.59,-3.85 -12.51,-5.78 -1.45,-1.92 1.44,-2.41 4.81,-1.44 -2.88,-1.45 -5.29,-2.89 -3.85,-3.86 4.33,-1.45 22.15,4.33 9.63,4.82 -0.96,0 -3.37,-0.49 -5.78,-0.96 3.86,0.96 8.66,3.85 7.7,7.22zm46.71 -116.04c1.92,4.33 -2.41,4.33 -6.26,4.33 -0.96,0.96 -4.33,1.45 -4.81,1.45 -3.86,0 -8.19,-1.45 -11.07,1.44 0.48,1.93 3.85,-0.48 4.81,-0.48 2.89,0 5.29,1.44 7.7,0.48 2.41,6.74 -15.41,6.25 -20.7,5.3 -8.19,0.48 -5.78,11.55 -1.92,1.92 0.96,-2.89 4.33,-0.49 5.77,-0.49 3.37,0.49 7.23,-0.49 9.15,1.45 -0.48,1.92 -4.33,4.33 -5.78,4.33 -4.33,-0.48 -9.62,0 -6.25,4.82l0 0.49 1.92 0c0.96,2.4 -5.29,3.37 -5.78,6.25 -1.92,0.96 -4.81,0.48 -6.26,2.41 0.96,2.88 -0.96,3.85 -1.92,6.74 1.45,2.4 -3.38,3.85 -2.41,6.74 1.45,1.92 2.88,-3.86 5.29,-3.38 3.86,0.97 9.15,0.97 12.52,3.86 -1.92,4.33 -6.74,-1.92 -9.15,-0.48 -3.86,1.44 3.86,3.85 5.29,4.33 1.93,1.44 5.29,-0.96 7.71,1.44 7.7,10.6 -11.56,3.86 -12.04,5.3 -4.33,-0.49 -8.66,5.78 -11.56,0.48 -6.25,1.45 3.38,2.89 2.89,5.78 3.37,1.93 8.19,0 11.07,1.45 1.45,2.41 7.22,5.29 4.82,8.66 -3.37,4.33 -1.45,7.7 -8.19,3.37 -4.33,2.89 3.86,3.86 4.82,5.78 -7.22,4.33 11.07,0.48 4.33,4.82 -3.86,2.41 -11.07,4.81 -15.41,4.81 -3.86,-3.85 -8.67,1.92 -0.49,0.96 1.93,1.45 3.86,0 5.29,0.49 2.89,0.96 1.93,4.33 -0.48,5.78 0,-0.96 -4.82,0.48 -4.82,0.48 -5.29,3.86 -10.59,1.93 -14.93,-0.96 -0.48,-4.82 4.34,-1.44 6.74,-0.96 -2.89,-3.37 -8.66,-3.37 -11.08,0 0,0 -0.48,-0.48 -0.96,0 0.96,0 1.45,1.92 4.82,2.41 5.78,3.37 -1.44,1.92 -2.89,0.49 -1.44,0.48 -5.29,0.96 -3.85,-1.45 -5.78,2.41 -5.29,2.41 -10.59,0.96 0,3.85 7.22,0.96 9.63,2.88 1.45,-0.48 1.92,1.93 0.49,2.41 0,0.49 2.88,0.49 1.92,2.41 0.96,0.49 0.96,2.41 0.48,2.89l0.49 0.48c2.89,0.49 5.77,2.41 7.7,3.85 1.92,0 3.85,3.38 5.29,3.86 -0.48,1.45 0.97,0.96 1.45,4.33l1.44 -1.44c2.42,0.96 4.82,1.92 3.38,4.33l-0.96 0.48 -0.48 0.97c-4.82,0 2.88,1.44 0.48,4.33 -0.97,3.37 -5.78,2.4 -5.3,-0.97 -2.88,-0.96 0.49,3.37 -2.41,2.89 -6.74,-2.41 -6.25,-0.49 -9.15,-7.23 -3.85,-2.41 -9.14,-6.74 -15.41,-6.26 -3.36,1.92 12.52,1.45 8.66,4.81 -4.33,3.38 -11.07,0.97 -14.92,3.86 -1.92,4.82 -9.63,4.33 0.96,4.82 -2.88,-1.92 6.26,-6.25 9.15,-5.78 7.23,-2.41 8.67,4.33 0,4.82 -0.49,3.36 -9.63,4.82 -11.07,4.82 0,2.4 10.59,-1.93 14.92,-2.89 4.82,-1.45 10.6,2.41 14.93,2.89 6.26,-2.41 8.67,1.44 1.45,2.89 -14.93,8.66 -20.22,13.96 -38.04,15.88 -1.92,2.89 -2.89,0.97 -4.33,0 -1.93,0.49 -1.45,1.45 0,1.45 -0.96,3.37 -4.34,-0.96 -5.78,1.45 -3.37,1.92 -7.7,-5.29 -9.63,-3.37 7.23,8.67 -7.22,4.33 -7.22,13.48 -5.29,3.37 -5.29,11.56 -12.52,9.15 -2.41,1.45 -2.89,5.29 -5.3,1.92 -2.88,0.49 0,4.82 -2.88,1.45 -1.93,0 -1.93,1.45 -2.89,1.45 -2.41,-2.89 -0.48,2.88 -3.37,1.92 -2.88,-2.41 6.26,-8.19 0.96,-7.23 -3.37,8.19 -4.82,7.23 -13,7.7 -2.41,1.92 0.96,1.45 1.44,1.92 -0.48,0.97 -3.36,4.82 -5.29,2.42 -1.45,-0.49 -4.33,0 -2.89,2.4 2.4,0 6.74,2.89 3.37,5.29 -2.89,0.96 -0.49,-0.96 -3.86,0 -6.74,2.42 7.23,-0.48 2.41,6.26 -0.49,1.45 -5.78,-0.96 -3.85,1.92 3.85,0.49 -0.49,2.41 -1.45,3.37 -0.96,0.97 -1.45,5.29 -4.82,3.86 -3.86,-1.45 -3.86,2.41 -0.49,2.88 1.93,1.92 0.97,6.74 -0.95,8.19 0.48,6.26 -1.93,0.49 -1.45,5.29 1.45,2.89 -0.97,1.93 -1.92,3.86 0.48,0.96 -0.97,0.96 -2.41,0.96 -3.86,0 1.44,1.92 1.44,2.41 -1.44,2.4 -2.4,0.96 -3.85,3.37 0,-4.33 -5.3,0 -6.26,-2.41 1.93,-3.37 -1.92,-0.96 -0.96,-3.86 -4.33,1.45 -4.33,-0.96 -1.44,-3.85l-0.48 -1.93c-3.37,4.34 -2.41,-1.44 -3.86,0 -0.48,2.41 -4.33,3.86 -7.22,3.86 -0.97,-3.86 -5.78,6.25 -6.26,-2.41 0.49,-0.49 1.45,-0.49 1.45,-0.96l-0.48 0c0,-3.85 -2.41,1.45 -3.86,-1.45 1.45,-1.45 -0.48,-2.4 -1.92,-2.88 0.48,-1.92 -1.92,-2.41 0.48,-2.88 0.49,-0.97 -1.45,-0.49 -1.45,-1.45 -0.48,0 -1.44,0 -1.92,0.48 -1.44,0 -1.44,-1.92 -1.44,-2.88 -1.45,-0.49 -4.34,-0.49 -3.37,-2.89 2.4,-1.44 0.48,-2.4 1.44,-4.32 -1.44,0.96 -3.36,-0.49 -4.33,-1.46l0.97 -0.48c-3.86,0 -1.46,-0.96 -2.89,-2.41 2.89,-4.33 -5.29,1.45 -1.45,-4.33 0.97,0 1.93,-0.48 1.93,-1.92 0.95,0 1.92,-0.49 2.88,0 0,-0.49 0,-1.93 0.48,-2.41 0,-0.96 4.34,1.92 3.86,0 -2.89,-2.41 -0.96,-4.82 -5.78,-5.29 -1.44,-2.88 -1.92,-2.88 -1.44,0.48 -2.89,1.45 -3.86,1.93 -5.78,5.78 -1.45,0.96 -4.33,-3.37 2.41,-5.78 0.96,-2.4 -4.82,1.45 -4.34,-0.48 0,-6.26 0.97,-8.19 7.23,-8.19 -4.33,-2.41 -7.23,4.82 -12.04,0.96l0 -1.92c1.45,-1.45 4.33,0 6.26,-1.92 -1.92,-0.96 -5.77,1.92 -7.7,0 0,-0.96 1.45,-1.92 2.89,-3.38 -0.96,0.97 -1.93,1.46 -2.89,1.46 -8.18,-3.86 10.11,-5.78 3.86,-8.19 -4.82,3.37 -10.11,-3.86 -2.41,-2.41 10.11,-2.41 6.26,0.48 12.04,1.45 0.49,-0.97 2.89,-0.97 3.37,-0.97 0.48,-1.92 -5.29,0.49 -5.78,-0.48l0 -0.96c-0.48,-1.45 -2.41,0 -3.85,-0.49 -0.49,-0.49 -3.37,0.49 -4.33,0.49 -10.11,0.96 -7.71,-0.49 -0.49,-4.34 -1.92,0 -3.86,0.97 -6.74,1.45 -1.45,-1.92 3.37,-5.3 5.78,-5.3 6.26,-1.45 -8.66,-2.41 0.96,-3.37 1.45,-0.49 1.45,0 0.96,-1.45 -3.37,-5.29 16.85,2.89 1.92,4.34 0,0 1.45,0.48 3.86,0.48 8.67,-0.48 -0.96,6.74 -1.92,2.41l-1.93 0.96c-0.96,-0.48 -1.92,-0.48 -2.88,0.48 1.92,0 4.82,0 5.78,1.45 0.96,0 2.88,-0.96 3.85,0 1.93,0.96 2.41,1.45 3.86,0.96 2.88,0 1.92,0 0,-0.96l0 -0.48c0.96,0 2.41,0.48 3.37,-0.49l0 -0.49 -1.45 -0.48 0.48 -0.96c0.48,-3.37 -4.82,1.44 -5.29,-5.3 1.92,-0.96 0,-0.96 -0.49,-1.92 -0.49,-1.44 4.33,-2.41 0.49,-3.37 0,-1.92 1.44,-1.92 2.89,-0.96 1.92,1.92 1.92,-0.96 1.92,-2.41 -1.92,1.93 -0.96,-0.48 -2.41,-1.44 -2.4,0 1.45,-2.41 1.92,-2.89 -1.44,-3.37 1.45,-0.96 0.97,-4.81 -0.48,-1.45 -5.29,0.48 -6.74,-0.49 -0.49,0 -1.45,0.96 -1.93,0.49 -10.59,-1.93 -1.44,-2.42 -15.88,-5.3 -7.23,-6.74 12.03,-2.41 14.44,-0.48l0.96 0.96c0.96,0 3.37,0.96 4.82,0.96 1.92,-0.96 0,-1.92 0,-3.37l0 -1.92c-4.82,-4.34 -2.41,-1.92 -6.26,-4.34l1.92 -1.44 -0.48 -0.49c3.86,-4.33 -1.92,-0.96 -2.89,-0.96 -1.44,-0.48 -0.96,-1.92 -0.96,-2.41 -2.4,0.49 -2.88,-0.48 -4.81,0 -0.49,-1.92 2.88,-4.82 -0.97,-2.41 -3.85,-4.33 -5.29,-8.18 -1.44,0.49 -2.89,1.45 -3.37,6.26 -8.19,4.82 -1.45,-1.45 -4.33,0.48 -5.3,-1.93 -0.95,-2.4 3.86,-1.44 4.82,-3.37 2.42,-0.95 2.42,-4.33 0,-0.95 -2.88,1.44 -2.88,0.48 -1.92,-0.97 0,0 -0.48,-0.49 -0.48,-0.96 0.96,-1.92 -4.82,2.41 -2.42,-1.45 0.49,-0.96 5.3,-0.48 0.97,-1.92 0.96,-0.48 3.37,-0.96 3.85,-0.96 0.96,-0.49 0,2.41 -0.48,4.33 0.96,-0.49 1.92,-4.33 3.37,-3.37 1.45,-1.45 -2.41,-1.45 -1.93,-2.88 0.97,-3.37 -1.44,-4.82 -4.32,-4.34 2.4,-5.77 -1.46,-4.33 -2.41,-10.11 -0.96,-0.96 -3.37,-3.85 -3.37,-5.29 0,-0.48 0.49,-0.96 0.96,-1.44 -2.89,-3.86 -2.89,-0.96 -6.26,-6.26 -1.92,-1.45 -5.78,-0.96 -6.74,-4.33 -0.48,-0.96 1.45,-2.41 0,-3.37 -1.92,-1.45 -1.44,-2.88 -4.33,-2.41 -4.32,-1.92 -2.4,-3.37 -8.66,-3.85 -4.33,-2.41 -9.63,-1.45 -14.45,-2.89 -3.86,-2.88 -3.86,0.97 -7.23,1.45 -1.92,-1.93 -3.85,-1.93 -4.81,0 -1.93,0 -7.23,3.85 -6.74,-0.48 -5.3,-2.41 -0.96,4.32 -7.23,0 -2.41,-0.97 1.45,2.4 0.49,2.88 -2.41,-0.49 -6.26,0.48 -8.67,-0.49 -1.92,-1.44 -5.29,-1.44 -5.77,-4.33 0.96,-2.88 8.18,-0.96 6.74,-3.37 -2.89,-1.92 -12.52,1.45 -10.6,-4.33 -3.37,2.41 -6.25,1.45 -8.66,-0.96 2.41,-3.86 13,-0.96 16.85,-3.86 5.29,0 11.55,1.45 14.93,-1.92 -4.82,-5.78 -7.71,0.49 -13.97,-0.49 -1.92,-2.4 -3.85,1.45 -5.78,0.49 -1.44,0.49 -1.92,-1.92 -3.37,-2.88 -3.37,1.92 -5.78,-1.45 -8.66,-1.45 -4.33,-0.96 -11.56,-2.89 -8.66,-7.23 1.92,-2.88 4.33,0.97 5.77,-2.88 1.93,-0.96 5.3,0.49 7.23,-1.44 2.41,-0.97 5.29,0 8.19,-1.46 2.41,-2.4 4.81,-4.32 8.18,-2.88 2.88,-1.92 5.3,-2.88 8.67,-2.41 5.29,0 5.29,-2.4 9.14,-4.33 0.96,-1.92 -0.96,-4.33 0,-6.25 0.48,-1.45 7.71,-2.41 4.82,-3.38 -5.78,3.38 -11.55,1.46 -18.29,0.97 -5.29,-3.86 7.7,-7.7 11.07,-8.66 0,-1.92 1.44,-1.92 3.36,-2.41 1.93,-4.33 9.15,-3.37 10.6,0 -1.92,-5.29 0,-4.33 5.29,-4.82 2.89,0.49 4.33,3.85 7.23,1.45 -2.41,-4.33 0,-2.89 0.96,-5.78 -0.96,-0.96 -2.41,-1.45 -2.41,-3.37 3.37,-3.37 10.12,-3.86 13.48,-2.41 -1.92,-1.92 0.96,-3.37 13,-4.33 1.44,2.41 3.85,-1.92 4.33,0.96 1.92,0 0.96,-2.4 2.41,-1.92 2.89,0 4.33,-1.93 6.73,-2.41 1.93,-1.45 7.23,2.41 7.71,4.82 0.96,2.89 -1.93,5.77 -0.49,8.19 0.96,-1.93 4.82,-4.34 4.33,-6.26 0.49,-2.41 -2.88,-2.88 -1.45,-4.81 5.3,-0.97 12.52,2.88 13.97,6.73 0.96,-0.96 1.92,-1.92 3.85,-1.44 8.19,1.92 -7.22,-4.33 -2.89,-9.15 10.11,-0.96 17.34,5.29 27.44,7.22 1.45,1.45 13.49,6.74 9.63,2.41 -2.89,-3.37 -6.26,-4.81 -10.11,-6.26 -0.96,1.45 -10.11,-5.29 -5.78,-4.82 6.74,-2.41 11.55,0.96 17.82,2.88 0,1.93 8.19,2.42 2.88,0.49 -3.85,-1.92 -14.44,-5.78 -3.85,-5.29 -1.45,-2.89 -8.66,0 -11.07,-2.41 -4.33,-1.92 3.37,-4.33 4.82,-1.45 5.77,2.89 -1.45,-3.37 4.33,-1.92 4.33,0.48 9.63,-0.49 14.45,-1.92 4.82,0 18.78,8.18 15.89,0.96 1.44,-0.49 6.73,0 4.82,1.92 -3.38,1.45 4.81,5.78 4.32,2.89 -2.88,-1.45 -1.92,-1.93 0.49,-1.93 0.96,-2.41 3.37,-1.92 5.78,-2.41 -13.48,-1.92 -5.29,-3.85 2.4,-5.29 1.46,2.41 7.71,-4.33 18.79,-0.96 0.96,2.41 2.4,0.96 2.4,-0.96 4.82,-0.96 13.01,-0.96 16.38,0.48 1.93,1.93 23.11,0.97 31.3,3.37 5.3,3.37 -13,4.33 -13.96,3.86 -5.29,1.45 0,0.48 1.44,1.45l0.96 0c5.78,0.48 10.11,-2.41 14.93,-1.93 6.26,-0.96 3.37,3.86 0,5.78 6.74,-2.41 12.04,-0.48 18.79,0 3.36,0.49 8.66,3.37 2.4,5.29 -2.4,1.45 -11.07,2.89 -14.93,3.86 -17.82,0.96 -35.14,0.96 -51.03,5.29 -2.41,3.86 17.82,-3.85 19.75,-1.44 6.73,-2.89 17.33,-0.97 25.03,-1.45 6.74,4.33 -9.15,7.23 -11.07,8.19 -0.49,2.88 6.74,-0.96 8.67,-1.93 3.37,-0.96 6.74,-1.45 9.63,-1.92 1.92,-0.48 -0.49,-3.86 1.92,-3.86 26.48,-5.78 5.78,12.04 -0.49,19.26 5.78,-3.86 17.34,-13 24.56,-14.44 -0.96,7.23 2.89,-1.45 9.63,2.41 4.33,1.45 7.7,-6.26 13,-6.74 5.29,-0.49 26.48,0.49 25.52,5.78 -3.85,4.82 -8.66,7.22 -14.92,6.74zm4.81 197.89c-2.41,-0.49 -1.92,2.4 -3.85,3.37 -0.49,0.49 -0.96,0.96 -0.96,0.96 -5.78,-0.96 -7.7,3.37 -12.52,4.82 -4.33,-1.45 -5.78,4.33 -8.66,2.88 -6.26,3.86 -14.93,-1.45 -18.3,-4.33 -1.45,1.92 -11.56,2.88 -9.15,-0.49 7.23,-1.44 3.37,-1.92 5.3,-5.78 -6.26,2.42 -0.97,-3.85 -10.11,-1.44 -9.15,-1.45 8.66,-3.37 9.14,-3.37l-2.89 -1.45 1.44 -0.48c1.45,-2.89 0.96,-2.89 -1.91,-3.38l-0.97 1.46 -1.45 -0.49 -2.4 0c-3.38,2.41 -7.23,1.45 -5.78,-1.45 1.92,-0.49 4.33,-0.96 2.88,-2.89l1.93 -0.96 -0.49 -0.97c1.92,-0.96 3.85,2.41 5.29,0.49l-1.45 -1.45c0.48,-1.44 0,-2.4 -0.48,-2.4 3.37,-1.46 10.6,2.4 9.63,5.29 -4.82,2.4 2.41,2.4 0.97,6.74l1.44 0.48c-0.49,-4.33 3.86,-5.29 3.37,-3.37 1.45,0 0.96,-2.88 0.49,-3.37 0.48,-5.77 7.7,4.34 6.74,-1.44 5.78,-4.33 4.81,1.92 8.18,1.92 -3.37,-3.37 0.97,-3.86 3.37,-1.45l0.96 -1.92c1.45,-2.41 3.37,0.96 4.82,-0.49 0,-4.82 3.86,-4.33 5.29,-0.48 2.41,2.41 2.89,-2.41 5.3,-1.45 -0.96,1.92 -1.45,2.88 0.96,3.86 -2.88,3.36 2.88,1.44 0.96,4.32 1.92,0 2.88,-0.48 4.33,0l1.45 1.46c-2.41,1.92 2.89,1.92 -2.89,7.22zm-252.3 -56.81c-5.3,-10.6 25.52,1.92 16.85,4.81 -3.85,1.93 -15.4,4.82 -11.07,0 -1.92,-1.44 -6.26,0.96 -6.26,-2.88 0.49,-1.45 6.26,-1.45 0.49,-1.92zm-6.25 -32.74c1.92,-0.96 6.73,2.41 1.44,1.45 -2.89,0.48 -4.81,-0.49 -1.44,-1.45zm16.37 241.22c-0.49,2.41 -0.96,4.33 -3.37,4.33l-1.92 -2.88 -2.41 1.45c0,-9.63 -4.82,-2.41 -8.66,0 -4.34,0.48 -2.88,-1.45 0,-2.89 -2.41,-1.92 -0.49,-6.25 -4.82,-3.37 -6.25,1.93 -12.03,0.49 -18.78,0 -0.96,-2.88 8.18,-5.78 1.92,-6.25 1.92,-1.45 3.37,-3.86 3.86,-6.26 5.29,-6.74 9.63,-20.22 17.33,-18.78 1.92,2.89 -3.37,1.45 -2.4,2.89 2.88,3.37 -5.79,7.7 -5.79,12.99 1.93,-3.37 12.04,-5.29 5.79,-0.49 -2.42,3.37 5.77,0.49 4.32,4.82 5.29,-4.33 3.86,-4.82 11.07,-0.96 -0.96,1.92 -4.32,2.41 -2.88,4.33 1.45,0.96 -0.96,1.92 0,1.92 1.45,1.93 4.82,-2.4 5.78,-1.44 0,0.96 -3.37,2.89 -3.86,3.37 -2.88,2.89 -2.88,3.36 0,3.85 0.49,-0.96 1.93,-3.37 3.37,-3.37 0.96,2.41 0,3.37 -0.48,4.34l2.41 -0.97c0.96,1.45 0.48,2.41 -0.49,3.37zm-134.81 -186.82c-0.97,-2.4 9.14,0 7.7,2.41 -1.45,0.49 -7.23,0.96 -7.7,-2.41zm-16.85 -12.51c-3.37,-5.78 8.66,-1.45 2.41,0 -0.97,0 -1.45,0.48 -2.41,0zm12.51 5.77c0,0 1.45,-0.96 1.93,-0.48 0.48,1.44 -1.45,3.37 -1.93,0.48zm0.97 6.26c2.4,7.22 -12.04,12.03 -12.52,3.85 -1.45,-6.26 10.59,-9.63 12.52,-3.85zm78.96 18.78c1.45,1.45 1.45,2.88 -0.96,3.86 -1.45,3.85 -4.82,0.48 -5.29,2.4 -0.49,1.45 1.92,5.3 -1.45,6.74 -3.85,-3.36 -6.26,-1.44 -8.19,-3.85 0.49,-4.33 -2.41,-1.45 -0.96,-3.86 -0.96,-2.88 -5.29,-0.96 -5.78,-4.33 -1.92,-0.96 -3.37,-2.41 -5.29,-3.86 -1.45,-0.96 -1.92,0.96 -1.45,1.93 0,0.96 -4.33,0 -2.88,1.45 6.25,3.85 -1.45,4.33 -4.82,0.48 0.96,2.89 3.37,1.92 3.86,5.78 1.44,-1.45 3.37,-0.49 3.85,1.44 0,0.97 0.96,2.42 1.93,2.42 0.48,1.44 0,3.85 2.4,2.89 5.3,3.37 0.96,-1.92 7.23,3.37 0.49,1.44 -1.92,4.33 1.45,4.82 0.96,1.44 4.33,6.25 1.44,7.22l-0.96 0.48c2.41,5.78 -0.96,2.42 -1.92,3.86 0.96,1.45 3.37,1.92 1.92,4.33 0,-0.96 -1.44,-1.92 -1.92,-1.92l-0.49 -0.96c-0.48,0 -1.92,-0.96 -1.92,-0.96 0,-3.37 -4.33,0.48 -5.29,-2.88 -4.82,-0.49 -9.63,-6.75 -13.97,-5.79 2.89,4.33 1.45,4.33 7.7,7.23 4.82,4.82 8.67,6.74 8.19,9.63 0,3.37 -9.14,-2.41 -12.52,-1.93 -5.29,0.49 -7.7,-6.74 -12.51,-5.29 -0.49,4.33 -5.78,0.48 -3.37,-0.96 -0.49,-2.41 -4.34,-1.92 -6.75,-4.82 -0.95,-1.92 2.89,-0.96 3.37,-1.92 0.49,-1.45 -2.88,-1.93 -3.85,-1.93 -2.41,-0.48 -4.82,1.93 -3.37,-1.92 -2.41,0 -3.86,-1.44 -0.96,-1.92 -3.37,0.96 -4.33,-2.89 -4.33,-3.37 -0.96,0 -3.86,-1.92 -3.37,-0.49 -0.96,4.82 -3.37,-6.73 -5.78,-2.88 -0.49,1.92 3.37,1.45 1.45,3.37 -2.41,0.96 -3.86,0.48 -6.26,-0.96 -1.44,0.48 -0.96,2.4 -2.4,2.4 0,0 -4.82,1.93 -3.86,0 -0.96,0 -3.37,0.49 -4.33,0.97 -10.11,-4.82 -1.92,-6.26 0,-11.07 3.37,-1.45 10.59,0.49 11.07,3.85 1.44,1.93 4.33,-2.4 0.96,-1.44 0.48,-0.96 0.96,-1.45 0.96,-1.45 0.96,-1.93 5.29,0 8.19,-2.89 5.29,-2.89 -8.67,-5.77 0.48,-8.67 3.37,-3.37 9.63,-7.22 9.63,-9.62 -0.96,-3.37 -3.86,-9.15 -7.7,-10.6 -3.37,-0.48 0,-2.88 -2.89,-3.37 -0.96,0 -0.48,2.41 -1.92,0.96 -1.45,-0.96 -0.96,-2.88 -2.89,-3.37 0.97,-0.96 -0.48,-2.4 -2.4,-0.96l-0.49 -0.48c-2.88,2.88 -12.52,3.85 -7.7,-0.96 1.92,0.48 3.86,0.96 5.29,-0.96 2.41,-2.89 -5.29,-0.97 -5.29,-4.34 0,-0.48 -1.45,-0.48 -2.41,-0.48 0.49,0 0.49,-1.93 -0.48,-1.45 0.96,-2.88 -1.93,-0.49 -4.33,-0.96 -2.42,0 1.44,-2.88 -0.96,-3.85 -2.89,0 -3.38,0 -4.34,-1.93 -2.41,0.48 -0.48,-0.96 -1.92,-1.92 -0.49,0 -1.45,1.45 -1.92,1.45 -2.41,0.95 0.96,0.95 1.44,1.44 5.78,6.26 -3.36,4.33 -7.22,3.37 -0.49,0 -2.89,-0.48 -3.37,-0.96 -2.41,0.49 -4.33,-0.96 -6.26,0.49 -0.96,-0.49 -2.88,-0.96 -2.88,-0.96l2.41 2.88c-0.96,0.96 -1.45,1.45 -4.33,-0.96 -4.34,0 -11.07,-1.45 -15.89,-0.49 -7.22,0.96 -6.74,-1.44 -13,-4.81 0,-1.45 -7.23,3.37 -6.75,0.95 -1.92,-3.85 -7.7,-1.44 -7.22,-9.14 2.88,0 4.82,0.49 8.66,-0.49 -6.26,0 -15.88,-2.41 -13.48,-12.52 5.78,-11.07 18.3,-24.55 33.23,-16.84 -1.45,1.92 -2.89,2.4 -8.19,5.77 -3.37,2.41 1.45,2.41 -2.89,7.23 0.97,0.48 4.82,1.92 1.45,3.85 -1.45,3.37 2.41,5.3 4.34,7.71 4.81,3.85 11.07,1.44 2.4,-0.97 -6.25,-1.44 0,-9.63 3.86,-5.78 0,-4.81 -5.78,-0.96 -6.74,-4.81 -0.49,-4.33 2.88,-8.67 5.78,-8.67 2.41,-0.96 6.74,-3.86 9.14,-3.37 2.89,-1.45 13.48,-3.86 12.53,1.44 -0.49,3.37 5.29,3.37 3.85,5.78 1.45,2.41 3.85,2.89 0,5.78 0.48,1.45 -2.41,5.3 -0.96,5.78 3.85,0 3.85,-3.37 4.81,-5.29 0.96,0.48 3.86,1.92 4.34,0.96l1.44 0 0.96 1.92 -0.48 0.96c1.92,3.37 2.88,0.97 0.96,-1.45 -0.49,-0.96 2.89,-0.96 1.92,-2.88 4.82,-6.26 12.52,-1.45 17.82,-0.48l1.45 0.48c0.96,0.49 1.45,1.92 1.45,2.88 0.96,0.49 0.96,0.49 2.4,1.45 1.45,-0.96 3.38,-0.49 3.86,0.97 0.96,2.88 -3.86,2.4 -2.41,4.32 1.93,-0.48 7.23,-2.4 4.33,1.45 0,0.49 2.41,-0.48 1.93,2.41 1.44,0.48 2.88,-3.86 2.88,-0.96l1.92 -1.45c2.89,-1.92 13.01,0 8.19,5.78 1.92,1.45 6.74,-4.82 5.29,1.92 -3.85,3.86 1.93,0 3.86,0 1.44,-0.48 -2.89,3.37 0.48,1.45 1.45,-0.49 3.86,-1.45 5.78,0.49 5.78,0.96 3.37,2.88 0.49,4.81 0.96,0 1.45,1.45 0,2.41 2.88,0 3.37,-0.96 5.77,-2.89 6.75,2.42 6.26,6.75 -2.4,7.23 0,3.37 9.63,0.49 10.11,5.3 -1.93,1.44 -5.78,-0.49 -8.19,0l0.48 0.48 0 0.96c-0.96,0.49 -2.4,0 -2.88,0 -0.48,2.41 -3.85,2.89 0,3.37 0.96,1.45 2.88,0.96 4.82,2.89 -0.48,0 -0.96,1.45 -0.96,1.45l0 0.49c2.41,-1.93 2.41,-0.49 2.41,0.49 0,0 0,-0.49 0.48,-0.49 1.92,-0.49 6.26,-5.29 9.15,-0.49 1.92,2.41 -3.86,3.86 -0.96,5.29 0.96,-0.95 1.45,-1.92 3.37,-0.95 0.48,-1.93 1.92,-1.93 2.41,-0.49 3.36,0 6.26,0.96 5.29,4.33 -1.93,5.29 1.92,-1.92 3.85,-0.96 4.34,-0.96 2.89,3.37 5.78,3.85 2.41,0.97 -0.49,0.97 -0.96,2.89 -0.48,1.45 2.41,0 2.89,-0.96 0.96,0.96 7.7,1.44 6.73,5.29 0,5.78 -7.22,-0.49 -7.22,3.37zm-89.07 28.4c-1.93,0.96 -5.29,-2.4 -1.45,-3.37 0.96,0 4.81,3.37 1.45,3.37zm-6.26 2.42c-6.26,0 -3.38,-5.79 1.44,-2.89 0.49,0.96 0,4.33 -1.44,2.89zm-5.79 -65.97c0,-2.88 5.79,-3.85 4.82,-0.96 -0.96,0.96 -4.33,3.37 -4.82,0.96zm-0.48 7.23c-7.23,3.85 -0.49,-7.23 3.37,-4.82 1.44,0.96 -1.45,3.37 -3.37,4.82zm-3.85 69.33c-0.49,5.29 -3.86,6.25 -4.82,0 -0.49,-4.33 8.66,-4.82 4.82,0zm-6.26 -77.52c-1.45,-1.92 4.33,-2.88 6.26,-1.45 2.4,1.45 -5.78,4.82 -6.26,1.45zm0 63.08c-5.29,4.82 -13.48,-5.29 -18.78,-5.29 -1.92,5.29 -13.97,14.92 -13,3.36 -0.49,-0.48 -15.42,2.89 -7.23,-1.44 7.23,-1.45 -0.49,-4.82 3.86,-9.63 0,-4.81 0,-14.92 6.73,-8.18 -0.48,0.96 0.96,5.29 2.89,2.88 4.82,5.29 2.41,0.97 8.66,3.86 2.41,4.33 8.19,2.41 10.11,9.15 2.88,0.48 10.59,0.48 6.74,5.29zm-11.56 9.62c-1.92,5.78 -14.45,3.37 -7.22,-1.92 2.4,-2.41 15.89,-2.88 7.22,1.92zm-27.44 -76.55c-2.89,0 -4.33,-1.45 -1.45,-1.45 1.92,-0.48 6.74,2.88 1.45,1.45zm1.92 22.63c-2.88,3.85 -5.78,-1.93 -1.92,-4.34 1.92,-0.96 3.37,2.89 1.92,4.34zm-24.56 -75.6c0,0 -2.41,-0.96 -2.41,-1.45l0 -1.44 -0.96 0.48c0.49,3.86 -4.82,0 -5.78,-0.48 -1.92,-1.93 -0.96,-4.34 -2.88,-5.78 -0.49,-3.37 5.29,-5.78 -0.49,-9.15 -11.07,-6.74 -0.48,-9.62 7.71,-9.15 3.36,1.45 7.22,5.3 12.04,5.78l-0.49 1.45c-2.89,0.96 -6.26,-1.45 -8.67,0.48 0.48,0.49 2.41,0.49 2.41,0.96 2.88,-0.48 3.85,1.93 6.74,2.89 0.48,0.96 0,4.33 1.92,3.86 0,-1.45 2.41,-3.38 4.81,-0.49 2.89,-1.45 6.26,-0.96 10.11,0.96 2.42,1.45 1.93,-0.96 2.89,-1.45 1.92,-0.96 3.85,0.97 5.29,-0.48 5.3,-0.49 8.67,-4.82 12.04,-1.45 2.41,-0.49 7.23,-3.37 8.67,-0.96 2.89,0.96 9.63,0.96 11.55,3.86 4.34,-0.49 2.89,2.89 1.45,5.29 0.48,0 0.48,0.96 0.48,0.96 0.97,0.48 2.42,0.48 0.97,1.44 -3.37,0 -4.33,-0.48 -4.33,3.38 -4.33,0.96 -13.97,4.32 -17.82,-0.97 -0.96,-2.89 -1.92,3.37 -8.66,2.41 -0.96,-0.48 -2.41,-1.44 -3.85,-0.48 -1.45,0 -1.93,-0.96 -2.88,0.48 -1.93,-1.44 -3.86,0 -6.75,-0.48 -3.37,0 -6.73,0.96 -10.59,0.96 -0.96,-0.96 0,-5.3 -1.92,-3.86 -0.49,0 -1.45,1.45 -1.45,1.45 -2.41,1.92 -6.26,1.45 -9.15,0.96zm-1.45 -39.96c9.15,0 8.19,11.07 0,5.29 -0.96,5.29 -7.7,-5.78 0,-5.29zm72.23 51.03c0.48,0 1.92,-0.48 2.41,-0.96 6.25,2.41 13,3.37 14.92,10.6 -3.37,0.48 -9.62,-1.93 -12.52,-0.97 -5.77,3.86 -11.55,1.93 -13,-4.33 -6.74,-1.92 -3.85,-8.67 5.78,-3.85 0,0 0.96,0 2.41,-0.49zm445.37 168.04c0.49,0 0.49,2.41 0,2.41 -0.96,0.48 -1.92,-1.45 -1.45,-1.93l1.45 -0.48zm-0.48 -2.88c0.48,0 0.96,1.44 0.96,1.92 -1.45,0.96 -2.89,-0.96 -0.96,-1.92zm6.26 -7.23c3.86,2.41 -6.74,10.59 -5.29,2.88 0.48,-0.96 3.37,-1.92 5.29,-2.88zm0.49 23.11c2.88,-1.92 0.48,0 1.44,1.45 -1.44,1.92 -4.81,-1.45 -1.44,-1.45zm1.44 -10.59c-6.74,-1.45 -2.88,-8.67 0,-3.86 -2.4,1.45 3.86,2.89 0,3.86zm16.38 -17.82c0,-2.4 1.92,-0.96 1.92,0.49 2.41,-0.49 1.92,0.97 0.49,2.41 -6.26,-1.92 0,-0.49 -2.41,-2.89zm11.56 -13c0.96,-2.88 4.81,-2.41 1.44,0.96 2.41,1.93 -1.92,6.74 0,1.93 -1.44,0.48 -3.37,-1.45 -1.44,-2.89zm-363.52 121.33c-1.45,1.45 -5.29,3.86 -4.33,0.49 0,-3.86 7.22,-4.33 4.33,-0.49zm-5.78 222.93c-0.96,0 -0.96,-1.92 0,-2.41 2.41,-0.48 0.96,2.41 0,2.41zm-1.93 22.63c-4.33,0.96 -1.44,-2.41 0.49,-4.33 1.93,-1.45 2.41,5.78 -0.49,4.33zm-2.4 -13.48c1.44,0.96 0.96,1.92 0,1.92 -0.96,0 -0.49,-2.4 0,-1.92zm0.96 -25.52c0.48,-0.49 0.48,-0.49 0.96,-0.49 0,0.49 0,1.45 -0.49,1.92l-0.96 0c0,-0.48 0,-0.96 0.49,-1.44zm0.48 4.82l0 -0.49 0.96 0c2.89,2.88 -2.4,3.86 -0.96,0.49zm2.41 6.73c-0.48,0 -0.96,-0.96 -0.48,-2.4 1.92,-1.45 3.37,4.33 0.48,2.4zm0.49 -219.07c-7.7,3.36 0,-8.19 2.41,-6.74 3.37,1.92 -0.49,6.26 -2.41,6.74zm-11.08 201.74c-1.92,-1.45 1.93,-1.92 1.46,-0.48 0,0.96 -0.97,0.48 -1.46,0.48zm-0.95 -5.29c-1.93,2.89 -1.93,-2.89 0,-0.96l0 0.96zm-11.56 1.92c0.48,0 2.41,0 1.44,0.96 -0.48,0.49 -3.85,0 -1.44,-0.96zm-14.93 -4.82c-4.33,-4.33 13,-3.85 8.67,0 -2.41,-0.48 -6.74,2.89 -8.67,0zm-11.07 -3.37c-3.37,0 -6.74,0.49 -10.11,0.97 -3.37,-1.45 -4.33,3.36 -4.82,4.33 -4.32,-3.86 -11.55,-3.86 -16.37,-1.93 -7.7,-8.67 9.64,-0.48 10.6,-3.85 -3.86,-0.96 -1.92,-5.78 -5.3,-6.26 -2.88,-4.33 4.34,-3.85 5.78,-1.44 5.29,1.44 10.6,-2.41 13.48,2.88 0.96,-0.49 14.45,4.82 6.74,5.29zm-37.55 -8.66c-1.45,0.49 -14.44,0.96 -15.89,0.49 6.74,-5.3 -5.78,-4.82 -6.74,-10.6 -2.41,-2.41 -3.37,2.41 -5.78,-0.96 -3.37,-4.82 -11.56,-0.96 -13.96,-4.33 1.44,-6.74 -13.97,1.92 -14.93,2.89 -3.86,-7.22 8.66,-8.18 13,-8.67 8.19,-1.92 15.41,2.89 22.16,4.82 4.33,2.88 11.07,4.82 14.43,7.7 3.86,0.96 4.34,0.48 5.3,3.37 3.37,-1.44 11.07,5.29 4.33,5.78 -0.49,-0.49 -1.92,-0.49 -1.92,-0.49zm-20.22 10.11c2.41,-2.88 13,-0.48 13,2.41 -5.29,0.48 -10.1,3.85 -13,-2.41zm-27.93 -20.22c-1.45,0.49 -2.89,-2.41 -0.49,-3.37 1.93,-0.49 3.86,4.82 0.49,3.37zm25.52 -34.18c0.49,-1.93 5.3,-0.97 4.33,0 -1.45,-0.49 -6.74,3.85 -4.33,0zm3.37 9.14c1.45,0.97 1.45,1.93 2.41,3.86 0.96,6.74 -5.29,0.49 -2.41,-3.86zm3.86 7.71c1.44,-0.49 -2.41,4.82 -1.92,0.96 0,0 0.96,-0.49 1.92,-0.96zm2.88 -16.85c0.96,1.45 -2.41,8.18 -1.92,2.88 0.96,-1.92 -2.41,-4.82 1.92,-2.88zm6.74 20.7c-0.48,0 -1.93,-0.49 -0.96,-0.96 0,0 0.49,0 0.96,0.96zm-2.41 -12.52c0.96,0 2.89,4.82 0.96,3.86 -0.49,-1.92 -5.29,-4.33 -0.96,-3.86zm5.78 6.26c0.48,0.48 0.48,2.88 -0.49,2.88 0.49,-0.48 -2.4,-6.25 0.49,-2.88zm2.41 6.74c0.48,0 0.96,2.41 0,2.88 -1.45,0 -4.33,-5.29 0,-2.88zm6.74 6.74c0.48,0.48 -2.89,4.33 -1.45,0.96 1.92,-1.92 -0.48,-2.41 -0.48,-2.89 3.36,-0.48 1.92,1.93 1.92,1.93zm4.81 9.63c-0.96,1.44 -5.77,0 -3.37,-1.93 2.41,0 5.3,0.48 3.37,1.93zm2.89 -9.16c1.45,0.96 -3.86,0.96 -1.92,-0.48 0.96,0 1.44,-0.49 1.92,0.48zm-103.52 149.27c-0.49,0 -0.49,-0.97 0.48,-0.97 1.45,-0.48 1.45,1.93 -0.48,0.97zm-4.34 -0.49c-0.96,0.97 -1.92,-0.96 -1.44,-2.41 0.96,-1.44 3.85,0.97 1.44,2.41zm-3.85 0.97c-5.3,2.4 -3.37,-1.46 -3.37,-3.86 -2.41,-0.49 -0.96,-1.45 0.49,-2.41 1.92,-1.45 4.33,4.81 2.88,6.26zm177.67 -338.98c-4.82,-0.48 -11.56,-3.85 -15.41,-6.73 3.86,-2.41 21.19,2.41 15.41,6.73zm-2.88 22.15c-0.49,2.88 -9.63,0.49 -7.23,-2.41 0.48,0.96 12.03,-1.45 7.23,2.41zm-10.6 -1.92c-1.93,-0.97 -1.93,-3.37 0.49,-3.86 0.48,1.45 3.85,7.23 -0.49,3.86zm-196.93 -271.56c-6.74,-1.92 0,-5.77 2.88,-7.7 5.3,-5.3 14.44,2.89 13.48,8.67 -2.41,5.78 -11.07,0.96 -16.37,-0.97zm3.37 5.3c-5.78,-1.45 0.49,-4.82 0.96,-1.45 0,0 0.49,1.92 -0.96,1.45zm-6.74 -11.56c-0.96,0 -3.37,-0.96 -2.41,-1.92 0.48,-0.96 4.82,-2.41 6.26,-0.49l-0.49 0.97c0,0 -2.89,1.44 -3.37,1.44zm11.56 -7.7l0.96 0.48c5.29,3.86 -4.33,2.89 -0.96,-0.48zm-11.07 75.59c1.44,0 4.33,-1.44 5.29,0 4.33,-0.48 0.48,6.26 -1.45,1.93 -0.48,-0.49 -2.88,-0.49 -1.44,1.92 -0.49,1.45 3.36,1.45 2.88,2.89 1.45,-0.48 3.37,1.93 1.45,2.41 0,0.49 -2.89,0 -3.86,2.41 -2.41,1.92 -16.37,-4.33 -17.33,-3.86 -2.41,0 -6.26,-0.96 -2.89,-3.36 0.96,-0.49 3.37,1.44 3.86,-0.49 2.89,-1.45 0.96,-5.78 4.33,-6.74 4.33,-0.49 6.26,4.33 9.15,2.88zm1239.34 -96.77c-2.41,-1.92 -4.82,-4.33 -7.23,-6.26l-0.48 0c-5.3,-1.92 -11.56,2.42 -17.82,3.38 -4.82,-1.45 2.89,-6.74 4.33,-9.15l0 -0.96c0,0 0.96,-0.97 1.45,-0.97 0.48,-0.48 0.96,-2.41 1.44,-2.41 -2.4,-1.92 -4.81,-4.32 -7.22,-6.73 0,0.96 -0.96,2.41 -1.93,2.41 1.45,0.96 1.45,2.4 2.41,4.32 -3.85,3.38 -13.48,2.89 -17.81,0.49 -3.38,-1.45 -8.19,-0.96 -11.56,-1.45 -4.34,-2.4 -5.29,-7.7 -11.07,-5.29 -2.41,-4.33 -0.49,-0.96 2.89,-2.89 0,-1.45 0.96,-1.93 2.89,-2.89 0.48,-0.48 1.92,-0.48 1.92,-0.48 0,0 0,-0.49 0.49,-1.45 1.44,-0.96 15.4,-3.37 19.25,-2.41 -0.96,-0.48 -1.92,-1.44 -2.89,-1.92 -5.78,1.45 -13.97,0 -18.78,3.37 0,-0.96 -2.89,0.96 -3.37,0.96 -1.92,5.78 -7.7,3.85 -11.56,2.41 -0.49,0 -2.89,-0.48 -2.89,-0.96 -2.88,-5.78 14.45,0 6.75,-4.82 4.81,-6.25 -5.78,1.45 -3.37,-4.33 0.48,-0.49 3.37,-0.49 3.85,-0.49l2.41 -2.41 -1.45 -0.96c1.45,-5.29 9.15,-2.89 13,-4.82 -286.48,-231.59 -758.82,-246.03 -1059.75,-30.81 17.34,-0.96 12.52,3.37 20.71,3.86 -4.33,-0.96 -0.96,-5.3 2.41,-4.33 1.92,0.48 6.25,0 7.22,0.48 -0.48,1.45 4.82,3.86 3.86,1.93 -5.78,-3.38 5.78,-3.38 8.66,-1.93 3.37,1.45 6.74,0.49 10.59,1.45 2.41,1.45 6.26,0.49 9.15,0.96 -1.44,3.37 -12.03,1.92 -14.44,4.82 5.78,-0.49 18.3,-4.33 18.3,-2.89 3.86,0.49 1.45,-3.85 6.25,-0.96 0.96,0.96 13.97,-2.88 7.23,2.41 0,-0.48 5.77,5.78 6.74,2.88 27.93,2.89 -18.78,13.49 -26.48,15.41 -3.37,3.85 16.85,-5.3 15.41,-0.49 -9.63,4.82 -21.67,7.7 -29.85,14.93 -1.45,1.44 -9.15,-0.49 -5.78,2.41 0,1.44 -5.3,1.92 -6.74,2.41 0,0 4.81,-0.49 3.85,0.48 -0.48,0.49 -3.85,0 -2.41,1.45 1.45,5.29 -8.18,5.29 -12.03,3.85 -0.48,-0.48 -1.92,-0.48 -2.89,-0.48 8.19,5.29 -15.89,6.26 -18.77,3.85 -0.49,4.34 7.7,1.45 11.07,3.37 2.41,5.29 -4.34,2.89 -7.23,3.37 1.45,0.96 12.04,3.38 6.74,4.33 1.45,3.86 -7.22,0.49 -5.78,2.89 5.78,1.45 -0.48,2.41 0.49,5.77 -3.37,2.42 -7.7,1.46 -12.04,1.93 -5.78,-2.89 -3.38,1.92 -1.92,4.33 -1.46,3.37 -6.26,2.41 -8.19,4.82 1.44,1.45 -2.41,2.88 -0.49,2.88 1.92,1.45 4.33,0.96 6.26,-0.96l0.49 0c5.29,4.82 0.48,8.66 -3.86,6.25 -0.96,3.86 -7.22,2.89 -9.63,4.82 -2.88,1.45 -4.82,0 -2.88,-2.89 -0.96,-1.44 -3.86,0 -5.78,-1.44 -0.96,-2.88 -5.29,-1.45 -1.45,0 2.41,1.44 -0.48,4.33 -2.41,4.33 -3.37,-0.48 -3.85,-4.82 -6.74,-2.89 -3.37,0.49 -2.88,-2.88 -4.33,-1.92 0,5.3 -5.29,-1.44 -4.33,2.89 -3.37,1.45 -7.7,-0.49 -9.63,-1.92 -0.49,2.41 -3.37,1.44 -5.3,1.44 -1.44,-0.96 -2.4,-2.88 -3.36,-0.49 -2.42,2.42 -5.78,-0.95 -3.86,-2.88 -1.45,-1.44 -0.96,0.96 -1.45,1.93 -1.92,3.37 -6.25,-1.45 -4.81,-3.86 3.85,-7.7 23.59,-1.45 10.59,-8.19 -6.25,-5.29 3.37,-7.7 7.7,-5.29 5.78,4.82 16.38,10.11 21.67,1.92 2.88,-1.92 4.33,-6.74 0,-2.89 -1.45,4.82 -6.26,5.3 -10.6,4.33 -4.33,0 -2.88,-0.96 -1.45,-3.37 0,-1.92 -3.85,0.49 -3.37,-1.44 1.45,-2.42 6.75,-1.46 7.71,-2.89 -0.96,-0.96 -3.86,-1.92 -2.89,-4.33 -1.92,-0.96 -1.45,5.77 -6.25,5.29 -3.37,0.96 -2.41,-4.82 -5.78,-0.49 -14.45,-1.92 5.78,-12.51 9.15,-10.59 4.82,0.48 9.15,0 12.03,2.41 2.41,2.89 9.15,1.92 3.86,-0.96 -3.38,-0.49 2.88,-0.49 4.81,-1.45 4.82,-2.89 -6.26,0.48 -8.19,-0.96 -4.32,-1.92 -8.18,-5.29 -11.07,-8.19 -4.32,-1.45 -8.18,-2.41 -9.63,-6.25 -1.45,0.96 -2.41,1.92 -3.85,2.88 1.92,0.49 -0.48,1.92 0.48,2.88 2.88,-2.4 6.26,2.42 7.23,0 1.92,-1.44 2.89,1.93 3.85,2.89 0.96,0.96 0.49,2.41 -0.48,2.41l0.96 0c-2.41,1.92 -11.56,3.85 -12.52,5.78 -0.49,0.49 -0.49,0.49 -2.41,1.44 -5.78,2.41 0.96,-4.81 -2.89,-3.85 -3.85,1.44 3.38,6.26 0,7.22 0,-1.44 -4.32,-0.96 -2.88,0.49 0,5.29 -3.37,2.88 -5.77,0.96 0.48,3.85 -0.49,1.45 -3.38,-0.48 -1.92,-0.49 -2.88,0 -1.44,2.88 0.96,1.44 -3.37,-0.96 -7.7,0.48 -5.78,4.82 -11.56,10.6 -17.34,15.41 10.6,0.96 4.82,4.81 5.78,7.7 -4.33,4.33 -10.11,-0.49 -13.48,-0.49 -5.29,2.89 -10.6,13 -13,12.04 -0.49,0.48 -0.96,0.96 -1.92,1.44 4.81,0 -0.97,5.78 -4.34,4.33 -4.33,4.34 -8.66,9.15 -13,13.48 1.45,0.49 3.37,1.45 3.85,0 -0.48,-3.85 4.82,2.41 6.74,1.45 2.89,0 -2.4,-1.92 -1.44,-2.41 2.88,-0.96 6.26,-1.92 9.63,-2.41 0.49,1.92 0.49,1.92 -0.48,2.41 15.41,0.96 -12.04,14.93 0.48,10.11l0.49 0c2.4,0 2.4,6.26 4.81,2.89 -2.88,-1.93 -1.92,-4.82 1.93,-3.38 2.41,1.93 -3.37,3.86 0,4.82 1.92,1.45 -0.49,3.37 0,9.63 -0.49,0.48 -4.34,2.89 -5.78,2.89 -2.41,0.49 -3.86,1.45 -4.34,-1.92 -1.92,0.48 2.42,4.81 -1.92,5.77 -5.77,0 -6.73,-7.22 -15.4,-10.59 -2.4,-0.96 -7.7,-1.92 -10.11,-6.25 -3.85,3.85 -7.22,7.7 -10.59,11.55 2.88,2.89 -0.96,4.33 -0.96,7.23 0.48,1.92 4.33,0.49 3.85,3.37 2.88,5.29 5.78,-1.92 9.63,5.29 3.85,-0.96 3.36,1.93 6.74,2.41 2.88,-0.48 2.88,6.25 0.96,4.82 -4.34,0 -5.3,-1.45 -9.15,-0.97 -0.96,2.89 0,2.89 -3.85,2.89 2.4,0 1.44,1.45 1.92,2.88 0.96,-1.44 2.88,-3.37 4.81,-1.92 0.49,0.96 0,2.89 2.41,2.89 -4.82,5.77 -19.26,4.81 -23.59,0 -0.96,0 -6.25,1.92 -4.81,-1.45 0.48,-1.93 -4.34,-0.49 -3.86,1.45 -4.33,2.89 -9.63,3.36 -14.44,5.29 -1.92,2.4 -3.37,4.82 -5.29,7.22 0.48,0 0.95,-0.48 1.44,0 0,0.97 2.89,2.41 5.3,2.41l0 1.45c0.48,3.37 5.78,0.96 6.74,3.37 1.92,1.45 -3.86,3.37 -1.93,4.82 1.93,0 4.33,1.92 4.82,2.89 -0.96,-1.92 -2.88,-6.74 1.92,-3.37 0.49,-3.37 -8.67,-8.66 -3.37,-11.07 0.49,-0.49 3.86,-2.88 4.82,-1.92 0,0 1.45,-0.49 2.88,-1.93 0.97,0 5.29,-1.45 3.37,-2.88 -2.89,0.96 -5.78,3.37 -8.18,2.88 0,0.49 -4.33,0 -2.89,0.97 -0.48,0 -1.92,1.44 -1.92,1.44 -0.96,-0.48 -4.82,0 -5.29,-1.92 1.92,-5.78 12.51,-4.33 17.33,-7.7 3.86,0 3.86,4.81 4.33,6.26 1.92,1.45 3.86,0.49 5.78,2.89 5.78,2.89 3.86,-2.41 11.56,3.36 3.37,1.45 11.07,0.49 17.81,-0.48 -0.49,0.48 4.33,-0.96 3.37,0.48 3.37,4.34 0.96,-3.36 3.85,-2.4 -1.92,-5.78 -2.4,-1.92 3.38,-3.86 0.96,-1.45 0,-1.92 2.88,-1.45 2.89,0 0.96,2.41 3.85,3.38 1.45,-0.49 0,0 1.93,-0.97l0.48 1.45c0.49,-0.48 2.41,-1.92 2.89,0.96 0.96,3.37 -3.37,3.86 -1.93,6.25 1.93,2.41 4.82,0 4.82,5.78 3.86,-5.29 -3.37,-6.74 -0.49,-10.59 1.93,-2.41 6.26,-1.45 8.67,-3.37 1.92,-0.96 4.81,-6.26 2.88,-8.66 -1.44,4.33 -7.7,4.33 -2.88,0 -0.49,-0.49 -1.45,-2.89 0.48,-3.86 -0.48,0 -0.96,-0.49 -0.96,-0.49 -2.41,0 -5.78,-2.4 -9.15,-2.89 -4.81,0.49 -5.29,-7.22 -2.4,-9.15 -5.3,-0.96 -3.38,-7.7 0.48,-10.11 5.78,1.45 1.45,-0.48 2.41,-2.88 0.96,-0.96 2.89,-0.49 1.92,-2.89 0.96,-4.81 -1.92,-8.18 -2.88,-11.55 1.44,-3.37 -0.49,-12.52 3.85,-8.66 -2.89,-7.7 14.93,-6.26 18.3,-3.86 1.92,-0.49 8.66,-0.49 11.07,0.96 1.45,2.89 -2.41,6.26 -3.85,7.7 -2.41,-0.48 -1.93,5.3 -3.38,5.78 -1.44,1.92 -9.14,0 -12.04,1.45 0,0.48 0.49,0.96 0.49,1.92l0.96 1.45c-2.41,2.4 -4.33,5.29 -8.19,5.29 1.45,2.41 6.74,0.96 8.66,4.82 3.86,2.88 0.97,6.74 5.3,9.63 1.45,2.89 6.74,2.41 5.78,6.26 -2.41,0.48 -0.97,-1.45 -6.26,2.4l-0.48 0.49c-0.96,1.92 3.37,2.41 5.77,1.92 0.97,-0.48 -0.48,-2.88 1.93,-1.45 1.92,1.93 2.88,2.41 4.82,3.37 3.36,2.89 -1.45,1.45 -1.45,3.86 4.81,0.96 0.48,3.86 1.92,7.7 0.96,-2.41 4.82,-11.07 9.15,-8.18 0.96,0.48 2.41,1.44 3.37,1.92l1.44 -0.49c0,0.96 0.96,2.41 1.45,3.37l0 1.45c1.45,0.48 1.45,6.25 0,2.88 -1.45,-0.48 -2.88,2.41 -1.45,3.37 -0.48,4.33 4.82,4.82 4.82,10.11 0,0 1.93,-4.33 5.29,-3.37 -0.48,-2.89 0.49,-4.33 3.38,-6.74 3.36,0.49 -0.49,-9.62 5.77,-8.18 0,0 1.45,-0.49 2.89,-1.93 1.45,-0.96 -2.89,0.49 -2.41,-2.89 -3.37,-2.41 -2.89,0 -3.37,-5.29 -2.41,0.48 1.45,-3.86 0.96,-0.97 0.96,0 4.33,-0.96 5.29,0 2.89,-0.96 6.26,1.45 8.66,1.45 0.97,-0.48 3.38,-1.45 2.42,0.96 -3.86,0.49 4.33,2.89 7.7,3.86 0,1.92 1.46,1.92 -1.44,2.41 -2.89,2.41 5.29,0.96 2.41,3.85 -0.49,1.45 -3.86,0 -3.37,2.41 -0.96,0.49 -3.86,-1.45 -3.86,0.49 0.49,0.96 2.89,5.29 5.29,7.7 4.82,0.48 1.93,6.74 -1.92,7.22 0,2.41 -3.37,1.45 -2.41,3.37 -2.4,1.45 -7.22,0.49 -3.85,4.34 -2.89,-1.45 -6.74,-5.3 -9.15,-8.19 -0.96,0.96 -0.96,0.96 -1.45,0.96 0.96,0.49 1.93,0.96 2.41,1.45 3.37,2.88 6.26,7.22 -0.96,4.33 -0.96,1.92 -3.37,1.92 -4.33,0.96 -0.49,-0.48 -0.96,0 -1.45,-1.93l-1.44 -1.44c-1.45,0.96 -1.45,0.96 -3.86,0 -0.49,0 -2.41,0.96 -1.93,1.92 0.97,0 3.38,1.45 3.86,2.41 -1.92,2.89 -5.78,8.19 -11.07,8.19 1.45,0.49 2.41,0.96 3.86,0.96l0 3.85 -2.41 1.93 0 0.96c-0.49,0.48 -2.89,2.4 -2.41,3.37 -1.93,0.49 -4.33,2.88 -6.26,2.88 -0.48,-0.48 -2.4,0.49 -3.36,0.49 -1.93,-0.96 -1.45,-1.92 -3.86,-1.45 0.48,0.49 0,3.37 0,3.86 0,0 -1.92,0.48 -1.92,0.96 -1.93,0.48 -6.74,-0.96 -9.63,-1.93 0.49,0 0.49,0.49 0.49,1.45 3.37,-0.96 8.19,3.86 6.74,5.78l-1.45 0.49c-0.48,0.96 -3.37,1.92 -4.82,0.96 -1.44,0 -3.37,-1.45 -1.44,1.92 -3.86,0.96 -4.82,0.49 -3.86,4.33 -2.4,0.96 -4.82,1.45 -3.86,3.86 -3.37,1.45 -4.32,6.74 -6.25,9.62 -1.44,1.92 -3.85,3.37 -1.92,6.26 0,4.82 -3.86,8.19 0.49,11.07 0.48,0 0.48,2.41 0.48,2.41 4.33,-3.37 9.63,1.45 10.11,6.74 1.92,2.89 2.88,4.82 0,7.23 2.88,1.92 11.56,-3.85 13.97,-1.92 3.36,3.37 5.29,1.92 9.62,4.81 3.85,0.97 7.23,2.41 9.15,6.26 1.44,0.48 7.22,0.48 8.19,2.88 3.37,0.96 3.85,-0.48 5.77,4.33 2.41,-1.44 7.23,-2.41 7.7,0 2.89,0.97 10.11,-1.92 9.63,1.45 4.33,3.37 -3.37,4.82 0.48,7.7 2.41,10.6 -2.89,8.66 5.78,14.92 -5.29,2.89 12.52,2.42 2.89,11.08 1.92,-3.37 8.67,-0.49 9.15,0.96 -3.38,-2.88 0.48,-6.74 3.36,-2.41 3.86,-1.44 -0.96,-3.86 0.49,-5.78 1.45,-2.88 3.85,-1.92 1.92,-5.29 -4.81,-4.33 -0.96,-13.48 -6.74,-18.78 2.89,-4.33 5.29,1.45 16.37,-8.66 3.85,-2.89 2.4,-13.97 1.92,-16.38 -1.45,-7.22 -16.37,-5.78 -10.11,-12.04 12.04,-8.66 -0.48,-12.03 3.86,-23.11 -1.93,-4.82 -5.78,-9.63 2.88,-11.07 3.37,2.88 7.7,-1.45 8.66,3.37 1.92,0.96 3.37,-2.41 6.26,0.96 1.93,0 3.38,-2.89 7.23,-1.45 2.41,-2.41 6.74,2.41 6.74,4.82 4.33,-0.49 4.33,2.88 6.25,5.77 4.82,1.93 8.19,0.97 12.52,1.93 -3.85,5.78 -1.45,13.96 0.96,18.29 -0.96,1.45 -7.22,-1.92 -2.41,2.89 0.97,1.45 6.26,-4.82 7.71,-1.93 2.89,1.93 -3.37,11.08 2.89,5.3 2.41,-2.89 0.96,1.92 2.88,0.96 0,-1.45 4.82,-0.49 3.86,-2.41 2.41,-3.37 3.37,-2.4 5.29,0 0.97,0 0,-1.92 2.41,-3.86 2.41,-1.92 -0.48,-0.48 -0.96,-1.44 0.49,-0.49 0.96,-3.37 2.88,-2.88 -2.4,-4.82 -0.96,-2.41 1.93,-6.26 2.4,-5.78 2.88,-1.45 5.29,2.89 2.89,2.88 4.82,4.33 5.78,10.1 2.41,0.49 2.89,1.93 3.36,3.37 1.46,0.97 8.19,3.86 3.86,4.82 -0.48,2.89 5.78,5.29 3.37,8.19 0.49,0 -5.77,0.48 -2.41,1.92 3.86,2.41 3.86,5.78 7.23,5.78 1.45,0 1.92,3.85 2.89,5.29 1.44,0 4.32,0.49 2.4,2.89 3.38,-0.96 4.82,-4.82 6.26,0.96 8.19,-2.41 2.88,0 9.15,2.88 -4.82,3.37 -11.08,1.92 -14.45,6.26 -9.63,0.96 -0.96,5.29 2.89,0 5.29,-3.86 11.07,-4.82 11.07,1.44 3.85,-7.22 14.93,2.89 8.18,8.19 0,1.45 1.93,3.37 2.42,3.86 -2.42,6.25 -11.07,5.29 -16.38,7.22 -4.82,5.78 -13.96,10.11 -22.63,9.15l-1.44 -0.96c-8.19,0.49 -18.3,-1.93 -26.96,2.41 -2.89,4.81 -6.74,6.26 -11.56,7.7 -3.85,3.86 -8.19,8.67 -13,12.04 -4.82,7.7 15.4,-12.52 24.56,-13.01 11.07,-7.22 23.59,9.15 5.29,8.19 1.45,4.34 12.03,-0.48 4.33,6.74 2.89,2.89 2.41,7.22 6.74,8.67 0,0.96 3.37,2.4 4.82,1.44 0.48,4.33 6.26,-0.48 7.22,2.41 4.82,-4.33 5.29,-0.49 7.71,1.92l-2.42 0c-4.33,4.34 -13,4.34 -18.29,6.74 -3.37,8.19 -18.78,9.15 -10.11,-0.49 2.88,-3.36 8.18,-4.81 11.56,-4.33 2.4,0 1.44,-2.4 0,-2.4 -0.49,-0.49 -5.3,2.4 -3.86,-0.49 0.48,-4.33 -6.74,4.82 -9.15,0.49 -0.48,1.44 -3.37,2.4 -4.81,2.4 0,0.48 0,0.97 -0.49,2.42 -4.33,2.88 -13,1.91 -13,6.25 -4.34,0.48 -6.26,0.48 -9.15,4.82 -6.26,5.77 3.85,12.03 -3.86,13 -2.88,4.81 -12.04,0.96 -16.85,6.74l0 -2.41c-5.78,1.45 0.96,4.33 -0.96,7.23 0,3.36 -5.29,9.63 -8.66,5.29 0.48,2.88 0.96,2.88 2.41,5.29 -1.45,1.92 -2.41,8.18 -5.29,6.74 0.48,-6.25 -2.42,-3.37 -0.96,-12.03 -2.89,11.56 -5.78,2.88 -3.86,9.63 0.96,2.88 3.86,4.82 -0.49,4.33 0.49,1.45 8.19,3.37 4.34,7.23 -0.97,1.92 -0.97,2.4 1.92,3.37 0.48,3.85 -6.26,2.88 -6.26,4.81 6.74,5.78 -2.88,0.97 -6.25,8.19 -4.82,3.86 -5.29,-1.44 -10.11,6.25 -7.23,4.34 -13.97,12.52 -12.03,19.75 5.29,12.04 3.37,1.92 4.81,15.41 2.89,5.3 4.82,11.07 1.45,17.81l-1.92 1.45c-3.85,-0.49 -2.41,-6.26 -6.26,-5.29l-1.92 -1.93c1.92,-5.78 -8.19,-8.66 -3.85,-15.89 -0.96,-4.81 -6.26,-10.59 -10.11,-9.63 -2.89,1.93 -6.74,2.41 -8.66,-0.96l-0.49 -1.44c-3.86,-0.49 -14.93,-1.93 -15.41,0.95 -2.89,-1.92 -6.26,-0.95 -9.63,-0.95 -0.96,-0.49 -0.49,-0.97 -2.41,0.48 -1.44,0.96 4.34,0 3.86,1.44l1.45 0.97c0,3.85 3.37,7.7 -2.89,3.37 1.45,0.96 -5.78,2.88 -2.88,0.48 -4.82,2.89 -4.33,-2.89 -10.6,-2.4 -5.78,2.4 -8.19,-4.82 -13.48,0.96 -6.74,-1.45 -4.33,5.29 -12.03,6.25 -3.86,-0.49 -6.74,3.86 -9.15,9.15 0.96,1.92 3.37,5.78 2.41,9.15 0,2.88 -0.96,4.81 -2.88,6.25 1.92,4.82 -0.96,6.74 0,11.56 -3.86,6.73 3.37,14.45 6.25,18.29 3.86,3.37 2.41,11.07 10.11,10.6 5.78,5.29 3.37,0.96 14.44,0.48 4.33,-2.88 7.23,1.45 10.6,-3.85 3.37,-5.78 0.48,-9.15 4.81,-13.48 3.38,-0.49 9.63,-2.41 13.97,-0.96 2.88,-2.89 10.11,-0.96 6.74,3.37 -6.25,3.36 -3.86,10.6 -6.25,16.37 -0.49,-0.48 0,-5.77 -1.93,-2.88 -1.45,1.44 2.89,4.33 -0.48,5.29 0.48,6.25 0.96,6.74 -3.36,13.96 0.96,2.89 6.74,-3.36 8.66,-1.92 4.33,2.88 14.44,-2.88 17.33,1.92 12.04,3.86 5.78,14.93 4.82,23.6 -0.96,7.22 7.23,21.19 16.37,18.77 6.26,0.49 7.23,-1.44 10.6,-4.33 5.29,-0.48 10.6,5.29 14.44,9.63 -0.49,1.44 -1.45,2.88 -3.37,2.41 0.49,1.44 -0.48,2.4 -1.92,3.37 -7.7,-6.26 1.45,-5.3 -3.37,-8.66 -0.96,-2.89 -3.86,-1.46 -5.78,-0.49 -0.48,-1.93 -0.48,-2.41 -1.93,-0.49 -0.48,1.93 -2.4,2.89 -3.85,3.86 0,2.41 2.41,2.41 0.49,4.81 -2.89,1.92 -3.86,0.49 -4.82,-1.92 -1.44,-0.48 -2.89,0.49 -2.89,-1.92 -2.4,-0.96 -3.36,-1.92 -7.22,-1.92 -1.92,-1.92 -2.41,-0.96 -4.33,-0.49 -0.96,-1.44 -2.41,-2.41 -2.41,-4.33 -0.96,-2.41 -3.37,-2.41 -5.29,-3.37 -0.49,-0.96 -0.96,-1.92 -1.45,-2.41l0 2.41c-0.49,1.45 -2.41,-1.45 -2.88,-1.45 -3.86,0 -3.86,-4.82 -2.89,-7.22 -0.48,-3.37 -4.33,-3.37 -5.78,-6.25 -1.92,-2.89 -4.33,-5.3 -5.77,-7.71 -10.6,0 -18.3,-3.86 -27.93,-7.22 -2.41,-5.3 -6.75,-7.71 -12.52,-10.6 -4.33,-2.88 -8.19,2.41 -13.01,2.41 -8.18,-0.49 -15.41,-6.26 -23.59,-7.22 -4.33,-1.45 -7.7,-4.82 -11.55,-6.75 -4.82,-0.96 -9.15,-1.92 -12.52,-5.77 -2.41,-2.41 -7.23,-1.45 -7.23,-6.26 -4.81,-4.33 2.41,-8.18 -2.41,-12.51 0.97,-6.75 -8.18,-13.49 -13,-17.34 -3.37,-0.96 -0.96,-5.78 -4.82,-5.29 -0.96,-1.93 -3.85,-2.88 -5.77,-3.86 -1.92,-1.45 2.41,-4.81 -0.49,-5.29 -4.82,-4.82 -6.25,-2.89 -7.22,-8.19 -7.71,-1.92 -10.11,-12.03 -14.93,-18.3l0.49 -1.92c-2.42,-4.81 -3.86,-4.33 -11.08,-5.78 -2.89,-2.4 1.93,5.78 0.97,6.26 -0.49,6.74 5.77,5.78 8.66,9.15 -2.41,6.26 11.56,15.88 12.03,20.22 4.82,3.37 -1.92,2.88 0.96,3.85 0.49,0.97 1.92,1.45 0.96,1.92 3.86,1.93 -0.48,5.78 2.89,7.23 4.82,1.92 4.82,2.41 6.74,8.19 -4.33,4.33 -3.86,-3.86 -8.19,-4.34 -4.33,-5.29 -12.04,-6.25 -8.19,-12.51 -2.89,-8.19 -13,-5.78 -16.85,-12.52 -4.33,-0.49 1.93,-3.37 2.89,-1.92 2.41,1.44 2.89,-2.41 0.96,-4.34 -2.41,-3.85 -7.23,-5.29 -9.63,-8.67 0,-6.74 -7.71,-13.48 -9.15,-19.25l0.48 0c-2.4,-8.67 -12.03,-11.56 -18.3,-12.53 -6.26,0.49 -1.92,-5.29 -6.26,-7.69 -1.44,-3.38 -6.25,-5.29 -4.82,-10.11 -2.89,0 -4.33,-4.34 -1.92,-6.74 0.96,-0.49 5.78,-0.97 2.89,-0.97 -3.37,-0.48 -5.3,1.93 -6.74,0 -3.86,-3.36 -5.78,-6.74 -6.26,-12.04 -1.91,-3.86 -4.81,-5.77 -1.91,-8.66 1.91,-5.29 -3.38,-13.48 -1.93,-14.92 2.41,-6.75 2.41,-13.48 2.88,-22.16 1.45,-3.37 -0.48,-7.7 -0.48,-12.03 -4.33,-2.89 -1.93,-2.89 -3.37,-6.74 1.44,-3.85 4.81,2.41 7.7,0.48 2.88,0.48 4.33,0.48 3.85,-1.93 3.37,-1.44 -1.44,-2.4 -2.4,-3.36l0 -0.49 -0.49 0c0,-0.49 0,-1.45 0.49,-1.45l0.48 0c0,-2.41 -3.37,-2.41 -4.33,-2.88 -0.96,-1.93 -1.45,-3.37 -3.86,-2.89 -2.88,0.48 -0.96,-2.88 -1.92,-2.88 -2.41,0.48 -1.92,-1.93 -1.44,-2.89 -4.82,0.96 -7.71,0.96 -9.15,-2.88 -0.96,0.96 -1.45,1.92 -1.93,3.37 6.74,0.48 9.63,3.37 13,8.66 1.92,2.41 10.59,4.34 8.19,7.7 -1.46,3.37 -4.82,-2.4 -6.75,-1.92 -3.85,1.45 -2.4,-0.96 -3.85,-1.92 -3.86,-0.49 -5.78,-3.37 -9.15,-4.33 0.49,-2.42 -0.48,-3.37 -1.92,-4.33 0,0 0,0.48 -1.45,0.48 -189.7,290.33 -61.63,699.6 332.23,642.78 0.48,-1.92 1.92,-0.96 2.41,0 0,-1.45 -3.86,-6.26 0.96,-6.74 -3.86,-12.52 3.37,-14.45 0.49,-20.71 5.77,-4.81 -3.38,0 -5.78,-3.36 -4.33,-3.37 1.92,-6.26 0.96,-10.6 3.37,-4.33 0,-9.15 -0.96,-15.89 0.48,-5.29 10.59,-17.81 8.66,-23.59 5.29,-8.18 3.85,-15.88 4.33,-26.96 2.88,-4.34 0.48,-6.26 1.45,-12.04 4.33,-12.99 4.33,-25.99 6.26,-39.96 1.45,-4.33 2.41,-23.59 -1.45,-28.89 -9.62,-12.52 -26.48,-13 -32.26,-23.59 -6.26,-2.89 -0.48,-8.19 -5.78,-11.55 -5.29,-11.08 -12.51,-23.12 -18.29,-35.15 -1.45,-3.37 -6.74,-2.89 -8.67,-5.78 0,-1.92 2.4,-1.92 0.96,-4.33 -9.15,-8.66 6.73,-12.04 6.73,-16.85 1.46,-7.23 -0.96,0.96 -2.89,0 -3.85,-3.86 -0.96,-3.37 -3.37,-5.29 0.49,-0.49 0,-3.37 1.93,-4.82 0,-2.88 0.48,-6.25 2.4,-7.23 -1.92,-3.85 -0.48,-3.85 2.89,-5.29 6.25,-0.49 2.88,-6.26 7.22,-9.14 2.41,-0.49 3.86,-0.97 4.82,-2.89 3.37,-4.33 3.37,-10.6 1.45,-15.41 1.44,-3.86 -0.49,-7.71 -1.45,-10.6 0,0 -0.48,-0.48 -0.96,-0.96 0.96,-0.96 2.41,-1.45 1.92,-2.88 1.92,0 2.89,-1.45 3.37,-2.89 3.85,-8.19 9.15,-5.29 9.15,-14.92 2.41,-4.82 5.78,-0.48 8.66,-4.34l0.96 -0.96 0.49 0c6.74,3.86 9.15,-8.19 17.33,-6.73 1.93,0.96 0.97,3.85 0,2.88 0,2.89 -5.78,0.48 -5.29,3.37 4.33,2.89 -3.37,11.55 2.41,14.93 10.11,1.44 -4.82,-11.08 2.41,-13.01 5.78,0.96 3.37,-8.18 8.66,-6.25 0.49,7.22 6.74,2.88 8.19,7.22 0,0 1.44,1.45 1.92,2.41 4.82,3.37 4.33,-0.48 8.66,0 4.34,-1.45 4.82,2.41 9.15,2.41 6.26,0.48 4.33,-3.86 17.34,-2.88 -3.86,1.44 -4.82,5.77 -0.96,3.85 -0.49,5.78 5.29,-2.41 4.33,1.92 2.4,1.92 3.85,-0.96 5.78,2.88 0,0.49 -2.42,3.38 -2.89,4.34 0.96,0.48 8.19,-2.41 9.15,1.92 4.82,1.45 8.66,4.81 8.66,9.15 3.85,0 6.26,1.92 10.11,5.78 6.26,1.92 19.26,-5.78 33.22,10.6 4.82,0.95 3.37,9.14 4.82,12.51 2.41,0.96 5.29,2.88 4.82,5.78 1.44,5.78 -13,6.25 -6.26,13.97 3.86,3.36 -0.96,-4.34 3.37,-5.3 2.41,-0.48 5.29,0.96 7.7,0.96 6.26,-2.41 4.34,7.23 -0.48,8.19 -4.33,0.96 -12.03,-1.92 -4.82,2.41 0.96,-0.49 3.86,-0.96 3.86,0.96 2.41,-2.89 7.22,-7.22 9.14,-9.62 3.86,-0.97 6.26,0.48 9.64,2.88 3.85,1.45 10.59,1.45 12.03,6.74 -1.45,1.92 -1.45,6.26 0.96,1.92 0.97,0 3.86,0.49 5.78,-1.92 2.89,0 7.22,4.33 11.56,4.33 10.59,-4.82 21.66,6.74 28.4,13.48 6.74,0.96 8.67,-1.45 12.04,7.7l0 0.96c2.4,13.01 -4.82,22.63 -14.93,29.86 -1.92,7.69 -3.86,9.15 -10.11,9.63 0,0.48 6.26,0.96 1.44,1.45 -1.91,0.48 0,0 -1.44,0.48 0.49,7.22 1.44,20.22 -0.96,29.86 -4.82,1.44 -0.96,12.03 -4.33,12.03 -3.86,6.26 -6.74,13.48 -12.52,19.74 0,1.45 -14.93,2.41 -15.41,1.45 1.92,2.41 -9.63,3.85 -3.86,5.77 -1.45,0.49 -4.33,0.97 -5.29,-0.48 -4.82,1.45 -7.23,3.86 -12.04,8.66 -1.93,1.45 -7.23,-1.44 -3.86,3.37 -1.92,2.89 -0.96,2.41 0.96,6.74 0.96,7.23 -5.29,14.93 -9.15,19.75 -1.92,5.77 -4.33,11.07 -10.11,14.92 0,0 -1.92,1.93 -2.89,1.93 -4.81,5.29 -10.6,23.58 -22.15,20.22 -2.88,0.48 -8.66,0.96 -10.59,-2.41 -1.44,-1.45 -6.26,0.48 -7.22,-2.89 0.96,-1.92 2.4,-10.11 0.96,-13 0,5.29 -2.41,9.63 -1.45,14.92 1.45,2.89 7.22,2.41 7.7,4.82 0,6.74 -1.44,4.82 2.41,10.6 1.45,10.59 -13.48,17.33 -25.99,17.33 -2.89,0.96 -4.82,-0.96 -8.19,0.49 0.96,2.88 1.92,3.85 0,8.66 -0.96,0.96 -3.86,2.88 0.48,3.86 0.96,2.4 -6.74,2.88 -9.62,3.37 -2.89,-1.45 0,-3.37 -5.3,-3.37 -3.85,-1.45 -1.92,1.44 -1.44,2.88 0,3.85 -2.41,7.23 2.89,8.67 5.29,-9.63 6.25,7.71 1.92,3.37 -0.49,-2.89 -7.23,-4.81 -1.92,0.96 -1.93,0.49 -4.34,4.82 -5.3,6.74l0.96 1.45c0,6.74 -1.92,4.81 -7.22,8.19 155.03,-17.34 328.86,-76.08 500.74,-145.41 -4.33,-7.7 3.86,-13.97 -6.75,-21.19 -1.92,-8.19 -6.25,-13.48 -11.07,-19.75 -1.44,-9.63 1.92,-21.66 5.3,-30.33 5.3,-9.63 11.55,-10.1 4.33,-23.58 -4.33,-8.19 4.33,-7.7 -4.33,-18.78 -1.92,-10.1 -9.63,-17.82 -15.89,-25.52l-28.4 0 -41.41 -47.19c-1.45,0.97 -2.89,1.45 -3.86,2.41 -8.66,-6.25 -24.56,-3.37 -33.7,2.41 -13,-1.92 -21.67,-16.37 -32.74,-20.22l-0.48 -1.45c0.96,-1.92 -0.96,-5.29 -2.41,-6.73 -2.89,-6.26 -7.7,-7.71 -10.11,-12.04 -2.41,-1.92 -3.37,-2.88 -2.89,-5.78 -3.36,-2.4 -4.81,0.49 -7.7,-2.88 -2.41,-3.86 0,-7.7 0,-11.07 -5.3,-4.82 -4.34,-5.78 -0.49,-11.56 1.92,-3.85 1.45,-10.11 4.33,-13.48 0,-4.81 -4.82,-8.66 -0.96,-12.04 -0.96,-7.22 -8.19,-5.29 -5.78,-10.1 0.49,-1.93 1.45,-3.86 2.41,-5.3l-201.26 -230.15 144.45 0 104 82.81c0.96,0 1.92,-0.48 4.33,-0.48 2.41,-5.78 5.29,-1.44 8.18,-1.44 6.26,-2.41 11.56,2.4 17.82,0 4.82,-0.49 13.96,3.37 16.86,-1.45 1.44,-8.67 3.85,-17.34 -3.38,-22.15 -2.4,-6.26 -4.33,-5.78 -9.63,-8.19 -2.88,-1.93 -8.18,-0.96 -7.7,-6.26 4.82,-8.19 26.48,5.78 17.82,-6.75 -3.85,-7.22 8.19,1.45 11.56,-0.48 4.33,0.96 -1.45,-2.41 10.6,-6.74 -2.89,-7.7 6.73,-6.74 10.59,-11.07 7.22,-2.89 7.7,-11.56 13.48,-15.41 5.77,-0.49 12.52,-3.37 13.48,-2.89 1.44,0.49 3.85,3.37 4.33,0.97 0.96,-3.86 3.86,-2.89 1.45,-7.23 -2.88,-1.92 -3.37,-5.29 -0.49,-6.74 -4.82,-1.92 -3.86,-5.78 -4.33,-10.11 0.48,-8.19 10.11,-4.33 13,-10.59 4.81,-4.34 3.36,2.4 3.85,5.29 -4.82,2.88 -1.45,4.82 1.92,6.25 0.48,3.37 -4.33,1.92 -5.77,3.86 -1.93,4.81 -6.75,4.81 0.47,9.14 -1.92,3.86 5.3,3.86 6.26,4.34 -2.41,7.22 8.19,-3.37 10.59,-1.93 10.12,12.52 22.16,-5.29 33.72,-1.44l1.44 2.4c4.82,1.93 9.63,-2.89 13,-4.81 3.86,-5.3 0.49,-4.33 2.42,-9.15l0 -1.45 -0.97 -0.96c0,-1.44 4.34,-14.93 9.63,-11.07 3.37,0.96 7.7,8.18 11.56,1.92 2.4,-9.15 -5.78,-7.22 -5.78,-14.93 5.29,-4.32 11.56,-5.77 18.29,-5.29 5.78,0.97 8.67,1.93 13.96,-1.92 5.29,-1.92 14.93,-2.41 1.93,-3.37 -3.37,-3.37 -4.33,-4.82 -9.15,-1.92 -8.18,-2.41 -14.93,2.41 -21.66,4.82 -5.78,1.44 -6.26,-6.26 -12.04,-4.82 -7.23,-1.45 0,-11.07 -2.41,-13.48 -10.12,-9.15 3.85,-13.96 8.18,-18.78 5.78,-1.93 9.62,-9.63 13,-11.56 3.38,2.88 0.97,-4.33 0,-6.26 -3.85,-2.4 -6.25,0 -9.14,-1.92 -3.86,-1.92 -16.85,7.23 -13.48,11.07 3.86,6.74 -14.93,14.45 -20.22,16.85 -2.89,-1.44 1.45,3.86 -1.45,4.33 -1.92,-0.48 -3.85,0 -1.92,1.93 0.96,2.41 -1.45,2.89 -0.48,5.77 -3.37,0.97 0,6.75 -1.45,9.15 4.33,0.97 12.99,5.78 10.59,9.63 -3.85,3.37 -0.49,5.29 -7.22,8.18 -0.49,0 -3.86,0.97 -3.86,0.97 -4.82,1.92 -1.92,13.48 -4.33,16.37 0.97,-0.49 1.92,-2.41 2.89,-3.37 0,2.41 -1.92,7.7 -3.38,9.15l-0.48 -2.41c-4.33,5.29 -4.82,2.41 -9.63,3.37 -5.78,3.85 0.48,6.26 -10.12,6.26 -6.26,-6.26 0.97,-9.63 -4.81,-15.41 -5.3,-2.41 -0.96,-10.59 -7.23,-12.52 0,-3.36 1.45,-6.26 -2.88,-7.22 -0.49,-0.49 -0.96,-0.96 -0.96,-1.45 -1.45,2.89 -2.88,5.3 -7.23,6.26 -5.29,5.3 -13.96,9.15 -21.19,2.89 -7.7,-0.49 5.3,-9.15 -0.96,-8.67 -8.66,4.82 2.88,-6.26 -1.92,-7.71 -7.23,0.49 -0.49,-7.22 -1.93,-10.11 -5.29,-4.32 4.34,-9.63 7.71,-12.03 0,-2.89 3.85,0 4.33,-2.41 0,-4.32 5.77,-1.92 7.69,-2.88 0.97,-1.44 0.97,-5.78 2.89,-5.78 2.88,0.49 -1.44,5.78 3.86,0.96 1.44,-4.33 6.26,-5.29 8.18,-9.15 0.97,-1.92 3.86,0.49 4.82,-1.92 1.93,-2.88 1.45,-4.81 4.82,-5.77 0.96,-1.93 0,-4.34 2.41,-5.78 -0.97,0 -2.89,-1.93 -0.97,-2.89 5.29,1.45 4.83,-5.78 8.67,-7.7 6.74,-7.23 2.4,-3.85 5.29,-8.67 3.37,-0.48 1.93,-5.29 5.78,-3.86 1.45,-3.85 3.85,3.86 4.82,-1.44 0.95,-3.38 -6.74,-0.96 -9.63,-0.96 1.45,-1.93 8.66,-14.45 7.23,-5.78 -0.49,2.4 2.41,-1.45 2.41,-0.49 0.95,2.88 3.85,1.92 4.33,-0.49 -1.92,-2.4 2.4,0 3.37,-0.96 -0.97,-1.92 -1.92,-5.78 1.44,-6.26 1.93,1.92 3.37,4.82 7.23,1.92 -0.49,-1.45 0,-4.33 1.92,-4.33 2.41,4.33 9.63,2.41 10.11,-1.45 1.92,0 7.23,1.45 5.3,-1.92 -0.97,-2.89 5.29,1.92 7.22,-0.48 3.86,-2.42 10.11,-3.37 11.55,-7.71 0.49,-0.48 5.78,-0.96 5.78,-1.92 -9.15,12.04 -2.89,10.6 3.86,1.45 0.49,3.37 0,7.23 3.85,3.37 0,-4.33 4.82,-7.23 7.71,-4.33 0.48,1.92 -4.34,3.37 -1.93,6.73 2.41,0 2.41,-5.77 4.82,-5.29 3.85,0.97 12.52,0.49 12.04,5.29 1.92,0.49 -5.3,4.82 -6.26,4.82 -1.45,-0.96 -2.42,-0.96 -3.37,0 0.49,0.96 3.37,2.89 4.81,2.89 -0.96,0.96 3.86,-0.49 3.38,-0.49 1.92,0.49 4.81,0.96 5.77,-0.96 0.97,-0.49 2.41,0.49 2.89,-0.49 13,0.97 -4.33,4.34 6.25,5.78 2.41,-2.41 0.97,1.45 3.85,0.49 1.93,-0.96 4.34,-0.96 5.78,0.96 6.75,-0.96 11.07,2.88 17.34,4.82 8.67,6.26 39.01,16.86 13.01,26.96 -14.93,4.33 -32.27,-3.86 -43.82,-8.19 3.37,6.26 10.11,8.67 14.44,11.56 0,4.33 -3.86,6.74 0,10.11 0,5.29 1.45,5.29 5.78,5.78 3.85,2.4 6.26,5.29 10.59,3.85 8.18,-3.85 -15.4,-6.26 -2.41,-13 5.3,5.29 13.48,6.73 20.71,5.29 -4.82,-7.22 -6.74,-7.7 2.88,-12.52 7.7,-5.29 12.52,-8.66 18.29,-0.96 0.49,-2.41 5.78,-11.56 -1.44,-12.03 3.37,-5.78 3.86,-12.04 -2.41,-14.93 4.33,1.45 10.6,-0.49 14.45,0.96 4.81,2.89 10.1,8.19 0.95,7.7 -2.41,-0.96 -8.66,4.82 -3.37,5.78 3.37,-0.48 2.42,5.78 6.74,3.86 3.86,-0.96 10.12,-1.93 9.63,-7.23 0.49,-1.45 10.1,-2.88 10.59,-3.86 2.89,-3.36 15.9,-10.1 16.37,-4.81 3.38,-3.37 6.75,-7.23 12.04,-6.26l-2.89 2.41c1.92,2.89 -2.4,4.34 -2.88,4.82 8.18,2.41 15.41,-5.78 23.11,-2.41 1.92,-0.49 4.82,-2.89 6.75,-3.85 0,-1.45 5.78,-0.49 5.78,0 1.44,0 0.48,3.85 0.48,4.33 0,0.96 2.41,1.92 2.89,1.92 0.46,-0.48 0.95,-1.45 1.44,-1.92 -0.49,-3.37 4.33,-1.93 4.81,-5.3 -2.4,-5.77 -6.73,-8.66 -12.51,-11.07 -2.41,-6.26 5.29,-6.26 7.7,-1.92 8.19,7.23 21.66,2.41 29.85,8.66 10.6,4.82 12.52,4.33 22.63,11.56 5.3,-3.37 2.89,-6.74 -1.45,-8.66 0,-4.82 -5.29,-5.3 -8.18,-4.82 -1.45,-2.41 7.69,-14.93 -1.92,-13.96 -2.41,-3.86 6.73,-7.23 9.62,-10.11 4.34,-1.93 2.89,-6.75 5.3,-10.11 0.48,-4.33 4.82,-4.33 7.7,-3.37 5.3,-0.96 12.52,-0.96 15.4,3.37 3.86,3.36 -2.88,7.7 -2.41,10.11 0,0.48 -2.4,1.92 -2.89,2.4 1.92,3.86 8.67,5.78 5.29,10.6 -1.44,4.82 1.45,11.08 -1.44,16.86 5.78,5.29 8.66,3.37 4.32,11.07 1.92,4.82 -3.85,3.37 -4.81,6.25 -1.93,3.37 -2.89,5.78 -6.74,5.3 -2.41,4.33 -16.37,-2.89 -12.51,3.85 6.25,2.41 12.51,0.49 16.84,2.89 5.3,-3.38 11.07,-8.19 15.4,-14.45 4.82,-3.37 -3.85,-8.66 0.96,-12.03 5.78,-3.37 11.07,-2.41 14.93,1.45 2.89,2.41 -0.48,5.78 0.96,8.67 0.49,1.45 7.23,4.82 10.11,1.92 -6.25,0.49 -12.52,-3.85 -5.29,-6.73 0.49,-3.86 -5.29,-8.67 -9.63,-9.63 -4.81,-2.41 -8.66,2.89 -12.51,0 -4.82,1.45 -3.37,-4.82 -4.82,-7.22 1.45,-9.15 9.64,-5.78 -0.97,-14.93l0 -0.96c-6.24,-0.96 0.49,-4.82 2.42,-7.7 2.41,-0.96 7.22,-1.45 7.7,-5.3 -5.29,-9.14 4.34,-6.73 3.37,0 -3.37,7.23 -0.49,5.78 -1.45,11.07 -1.92,2.42 13.49,1.93 18.79,5.3l0.95 -0.49c-1.92,-3.85 -15.4,-3.37 -14.92,-11.07 3.85,-3.86 7.7,2.89 11.56,0.96 2.41,-2.88 -2.88,-2.88 -4.34,-2.41 -0.96,-3.37 -6.73,-2.41 1.92,-6.25 3.37,-0.96 3.37,2.88 5.78,2.88 9.15,-1.44 12.52,7.23 19.74,7.23 6.75,0.49 5.31,-4.33 1.46,-5.78 -8.19,0 -7.23,-5.29 -7.23,-9.15 -9.14,-6.74 6.74,-7.7 12.03,-7.22 7.23,-2.41 16.85,-0.49 24.08,-2.89 2.41,1.45 2.88,-0.48 2.88,-1.44 -0.48,-0.49 -1.93,-1.45 -2.88,-1.45l0 -1.45 -1.45 0c-0.49,-3.85 4.33,0 3.37,-2.88 -4.33,-0.96 0.96,-5.29 3.37,-5.78 3.86,-4.33 10.59,-5.29 16.85,-8.67 1.44,0 3.86,-0.49 4.81,-0.96 4.83,1.45 12.52,-0.97 12.52,-5.3 4.33,4.33 22.63,-5.77 15.89,5.3 3.37,-3.86 8.18,-0.97 11.07,-3.37 5.78,-4.82 10.11,-1.45 13.01,-0.97 4.32,1.45 -1.92,-3.85 -2.89,-3.85 -0.48,-4.33 9.63,-1.45 12.53,-2.41 -4.34,-7.7 10.1,-14.44 16.84,-15.4zm-1003.9 -57.79c2.41,0.49 12.04,4.82 13.48,4.82 -6.25,-3.85 -13.48,-5.78 -15.89,-7.7 1.45,0.96 1.93,1.92 2.41,2.88zm38.04 187.78c0.96,-0.48 2.41,-1.44 3.37,-2.4 -0.49,0 -0.96,0.48 -1.45,0.48 -0.48,0.49 -1.44,0.96 -1.92,1.92zm170.93 -80.88c-1.44,0 -1.92,1.45 -0.96,1.92 0.96,-0.48 1.45,-0.96 1.92,-0.96l-0.96 -0.96zm105.45 195.01l0 -0.49c0,-0.49 0.48,-0.96 0.96,-0.96 -0.96,0 -1.45,0.96 -2.41,0.48 0,0.49 0.96,0.49 1.45,0.97zm0.96 -1.45c1.44,-1.45 2.89,-2.41 2.89,-3.86 -0.48,0 -1.92,1.93 -2.89,3.86zm0 0c1.44,-1.45 2.89,-2.41 2.89,-3.86 -0.48,0 -1.92,1.93 -2.89,3.86zm-2.41 0.48c0,0.49 0.96,0.49 1.45,0.97l0 -0.49c0,-0.49 0.48,-0.96 0.96,-0.96 -0.96,0 -1.45,0.96 -2.41,0.48zm-104 -194.04c-1.44,0 -1.92,1.45 -0.96,1.92 0.96,-0.48 1.45,-0.96 1.92,-0.96l-0.96 -0.96zm-169 78.96c-0.48,0.49 -1.44,0.96 -1.92,1.92 0.96,-0.48 2.41,-1.44 3.37,-2.4 -0.49,0 -0.96,0.48 -1.45,0.48zm-42.37 -188.74c1.45,0.96 1.93,1.92 2.41,2.88 2.41,0.49 12.04,4.82 13.48,4.82 -6.25,-3.85 -13.48,-5.78 -15.89,-7.7zm0 0c1.45,0.96 1.93,1.92 2.41,2.88 2.41,0.49 12.04,4.82 13.48,4.82 -6.25,-3.85 -13.48,-5.78 -15.89,-7.7zm42.37 188.74c-0.48,0.49 -1.44,0.96 -1.92,1.92 0.96,-0.48 2.41,-1.44 3.37,-2.4 -0.49,0 -0.96,0.48 -1.45,0.48zm169 -78.96c-1.44,0 -1.92,1.45 -0.96,1.92 0.96,-0.48 1.45,-0.96 1.92,-0.96l-0.96 -0.96zm104 194.04c0,0.49 0.96,0.49 1.45,0.97l0 -0.49c0,-0.49 0.48,-0.96 0.96,-0.96 -0.96,0 -1.45,0.96 -2.41,0.48zm2.41 -0.48c1.44,-1.45 2.89,-2.41 2.89,-3.86 -0.48,0 -1.92,1.93 -2.89,3.86zm0 0c1.44,-1.45 2.89,-2.41 2.89,-3.86 -0.48,0 -1.92,1.93 -2.89,3.86zm-2.41 0.48c0,0.49 0.96,0.49 1.45,0.97l0 -0.49c0,-0.49 0.48,-0.96 0.96,-0.96 -0.96,0 -1.45,0.96 -2.41,0.48zm-104 -194.04c-1.44,0 -1.92,1.45 -0.96,1.92 0.96,-0.48 1.45,-0.96 1.92,-0.96l-0.96 -0.96zm-169 78.96c-0.48,0.49 -1.44,0.96 -1.92,1.92 0.96,-0.48 2.41,-1.44 3.37,-2.4 -0.49,0 -0.96,0.48 -1.45,0.48zm-42.37 -188.74c1.45,0.96 1.93,1.92 2.41,2.88 2.41,0.49 12.04,4.82 13.48,4.82 -6.25,-3.85 -13.48,-5.78 -15.89,-7.7zm0 0c1.45,0.96 1.93,1.92 2.41,2.88 2.41,0.49 12.04,4.82 13.48,4.82 -6.25,-3.85 -13.48,-5.78 -15.89,-7.7zm42.37 188.74c-0.48,0.49 -1.44,0.96 -1.92,1.92 0.96,-0.48 2.41,-1.44 3.37,-2.4 -0.49,0 -0.96,0.48 -1.45,0.48zm169 -78.96c-1.44,0 -1.92,1.45 -0.96,1.92 0.96,-0.48 1.45,-0.96 1.92,-0.96l-0.96 -0.96zm104 194.04c0,0.49 0.96,0.49 1.45,0.97l0 -0.49c0,-0.49 0.48,-0.96 0.96,-0.96 -0.96,0 -1.45,0.96 -2.41,0.48zm2.41 -0.48c1.44,-1.45 2.89,-2.41 2.89,-3.86 -0.48,0 -1.92,1.93 -2.89,3.86zm124.23 130c0.48,-2.4 2.41,-4.81 5.29,-2.88l-1.45 0c6.26,2.88 10.11,0 14.93,-0.96 -1.44,18.78 -4.82,7.7 -18.78,3.85zm-23.59 -8.66c0.96,-6.26 -7.7,-15.89 2.88,-17.82 -4.32,-4.81 -2.4,-9.63 2.89,-10.59 1.44,2.88 0.96,8.66 -2.89,10.59 0.49,0.49 0.97,0.49 1.45,1.45l-0.96 0.96c7.7,1.93 3.85,16.85 -3.37,15.41zm198.38 -29.37c-5.79,-1.92 -10.6,-10.1 -16.86,-12.03 -13.47,-4.81 -1.44,-6.26 1.45,-13l-2.41 -2.41c6.74,-3.85 11.56,-5.78 0,-3.85 -6.25,0.48 -13.48,5.78 -19.74,7.69 0,5.3 7.23,5.3 11.07,5.3 5.3,4.81 -8.18,0.96 -8.66,4.33 -2.41,0.96 -3.86,0.96 -5.78,2.88 -0.96,1.45 -7.7,-0.96 -4.33,-1.92l0 -2.4c-0.48,-1.93 -4.82,-1.45 -5.29,-3.86 0.96,-0.96 4.33,-2.41 5.77,-2.89 0.49,-3.85 -3.85,0.96 -4.81,-0.48 -1.92,-1.45 -5.78,-1.45 -6.26,-2.88 6.26,-8.19 -7.69,1.91 -8.66,4.81 -4.81,-0.96 -0.49,4.33 -2.88,6.26 -4.82,1.44 -6.75,3.85 -6.75,9.14 -1.44,3.86 -8.18,4.34 -5.77,10.12 3.85,3.85 1.45,6.73 7.7,7.22 6.26,2.41 -1.93,3.37 -5.78,2.41 -4.82,2.88 -8.66,4.81 -14.44,1.45 -2.88,-1.93 -6.26,0.96 -6.26,2.88 -1.45,-2.88 -1.92,-3.36 -3.37,-2.4 -1.92,-2.41 -1.45,1.92 -0.48,2.4 1.92,0.97 2.4,1.46 0.48,1.93 -0.96,-1.93 -2.41,0.49 -2.41,0.96 -2.89,0 -4.82,-2.41 -5.78,-4.81 -3.37,4.81 5.29,13.96 8.19,15.4 2.4,3.85 -2.89,0.48 -2.41,1.44 0.96,1.45 3.37,3.86 0.96,4.33 -2.4,-0.48 -4.33,-3.85 -6.26,-3.85 -5.78,3.85 10.59,5.29 0.48,7.23 0.97,1.44 2.89,5.29 0.97,5.29 -2.42,-1.45 -5.3,-0.49 -6.74,-2.41 -2.41,0.49 -2.41,-2.41 -2.41,-4.33 -6.26,-1.45 1.92,-6.26 -1.93,-8.19 -9.63,-8.66 -10.59,-4.81 -9.63,-9.15 0,-0.96 -2.41,-1.92 -2.41,-2.4 1.45,-11.56 -0.48,-13.48 -8.19,-18.3 -7.7,-3.37 -8.19,-6.74 -12.04,-6.25 -2.88,-1.45 -5.29,-4.34 -4.82,-7.23 -1.92,-1.45 -3.36,-1.93 -3.36,-4.33 -2.89,-2.41 -7.71,5.29 -6.74,-4.82 -2.41,-2.41 -5.3,2.41 -8.19,1.92 -2.42,8.19 3.36,11.07 9.15,15.89 0.96,3.37 3.85,9.15 7.22,10.11 4.34,0.96 7.7,-1.44 6.26,3.86 3.86,0.96 19.74,9.62 13.47,11.07 -4.32,-3.86 -10.59,-5.29 -9.62,1.44 1.92,0.96 4.81,1.45 2.88,4.33 -2.88,3.38 -13.48,15.89 -5.77,1.93 -0.96,-6.74 -6.74,-9.15 -10.6,-13 -3.85,0 -4.81,-5.78 -12.99,-6.26 -3.37,-6.26 -13.01,-9.63 -13.96,-18.3 -7.23,-2.88 -13,-1.92 -17.82,2.89 -6.25,9.63 -22.15,-6.74 -25.52,7.22 5.29,10.6 -13.48,9.15 -17.33,16.37 -4.34,7.24 -3.37,7.71 -0.96,13.97 -2.41,1.45 -4.34,3.37 -6.26,5.29l13.48 11.07c7.22,-2.4 15.4,-4.81 23.12,-3.36 2.4,4.33 6.25,-0.96 8.66,-1.45 2.41,0.49 4.81,0.96 6.73,0 0.97,-0.49 3.37,2.41 5.78,0.96 5.29,-0.96 11.07,-6.74 12.04,0.49 -0.97,2.89 3.37,-2.41 4.32,-0.49 -5.78,6.26 0.49,7.23 0,13.48 -1.92,3.37 -11.07,9.15 -2.4,8.66 3.85,0.97 7.69,7.7 13,6.26 5.3,-1.45 9.15,2.89 13.97,2.89 5.29,9.15 2.88,7.23 13.48,9.15 6.25,0.48 10.1,8.19 16.84,2.89 1.46,-1.93 0.97,-5.78 -0.48,-7.71 2.4,-5.78 11.07,-8.66 15.89,-6.25 2.89,0.48 5.29,5.29 9.64,4.33 7.22,-0.49 7.7,4.33 16.84,4.33 7.7,1.92 16.38,6.26 22.16,0.49 7.22,-4.34 16.84,6.26 23.11,0 0.96,1.92 1.92,3.85 2.89,5.77 -0.48,-2.41 -1.92,-4.81 -2.89,-7.7 4.33,-3.85 3.85,-8.66 5.78,-13.47 2.88,-4.82 5.77,-11.08 3.85,-16.37 0.49,-3.37 0,0.96 0.96,-3.37 2.89,-9.15 -3.37,0 -7.23,-3.37 -2.4,-0.96 -5.78,4.82 -10.1,4.82 -6.75,0.96 -6.26,-7.7 -13.97,-5.29 -2.88,12.03 -13,-2.41 -15.41,0.96 -2.41,-2.89 -5.29,-2.89 -7.7,-5.78 -4.82,-2.88 6.25,-1.45 -2.41,-5.3 0.49,0 3.37,-2.4 3.37,-2.4 -3.86,-4.34 -0.48,-8.19 -5.78,-7.23 -1.92,-8.18 8.19,-6.26 13,-5.29 5.78,-2.88 9.15,-7.7 15.41,-5.78 6.73,-0.96 13.96,-10.11 21.66,-6.26 8.67,-0.48 14.45,7.23 24.07,6.75 3.86,-0.49 8.67,-0.49 13.49,-0.49 9.63,-4.33 8.66,-7.7 1.45,-13.97zm-299.01 -91.96c1.44,-1.45 2.89,-2.41 2.89,-3.86 -0.48,0 -1.92,1.93 -2.89,3.86zm-2.41 0.48c0,0.49 0.96,0.49 1.45,0.97l0 -0.49c0,-0.49 0.48,-0.96 0.96,-0.96 -0.96,0 -1.45,0.96 -2.41,0.48zm-104 -194.04c-1.44,0 -1.92,1.45 -0.96,1.92 0.96,-0.48 1.45,-0.96 1.92,-0.96l-0.96 -0.96zm-169 78.96c-0.48,0.49 -1.44,0.96 -1.92,1.92 0.96,-0.48 2.41,-1.44 3.37,-2.4 -0.49,0 -0.96,0.48 -1.45,0.48zm-42.37 -188.74c1.45,0.96 1.93,1.92 2.41,2.88 2.41,0.49 12.04,4.82 13.48,4.82 -6.25,-3.85 -13.48,-5.78 -15.89,-7.7zm0 0c1.45,0.96 1.93,1.92 2.41,2.88 2.41,0.49 12.04,4.82 13.48,4.82 -6.25,-3.85 -13.48,-5.78 -15.89,-7.7zm42.37 188.74c-0.48,0.49 -1.44,0.96 -1.92,1.92 0.96,-0.48 2.41,-1.44 3.37,-2.4 -0.49,0 -0.96,0.48 -1.45,0.48zm169 -78.96c-1.44,0 -1.92,1.45 -0.96,1.92 0.96,-0.48 1.45,-0.96 1.92,-0.96l-0.96 -0.96zm104 194.04c0,0.49 0.96,0.49 1.45,0.97l0 -0.49c0,-0.49 0.48,-0.96 0.96,-0.96 -0.96,0 -1.45,0.96 -2.41,0.48zm2.41 -0.48c1.44,-1.45 2.89,-2.41 2.89,-3.86 -0.48,0 -1.92,1.93 -2.89,3.86z"/>
    <path class="fil0" d="M1123.94 353.51c-1.67,0.29 -3.42,1.63 -5.29,2.67 2.46,-0.98 6.86,-1.26 5.29,-2.67z"/>
    <path class="fil0" d="M1117.48 356.69c-0.07,0.08 -0.24,0.16 -0.33,0.23 0.5,-0.3 0.97,-0.46 1.49,-0.74 -0.41,0.16 -0.91,0.3 -1.16,0.51z"/>
    <path class="fil0" d="M1391.19 475.79c-0.79,0.09 -1.51,-0.82 -2.35,-1.45l0 0.33 2.35 1.12z"/>
    <path class="fil0" d="M910.25 526.24c-7.37,-0.26 -1.83,5.65 -7.76,-3.72 -1.42,-5.31 -7.1,-1.55 -9.55,-4.56 -2.67,-1.97 -4.51,4.58 -6.26,4.88 2.41,-3.09 -21.77,12.22 -20.18,13.38 2.23,1.34 8.57,-5.04 7.12,-0.74 -0.18,0.66 3.06,1.25 3.82,1.06 4.63,1 9.23,-8.18 15.83,-6.8 -6.51,7.39 -6.05,0.49 5.09,7.87 8.29,-0.5 9.74,-4.39 17.74,3.51 -7.78,-2.22 -10.55,0.63 -17,2.12 -5.33,-1.8 -2.63,4.42 -6.05,6.49 -2.27,8.91 5.72,-9.67 4.45,-2.77 -1.37,7.74 -12.03,22.97 0.21,26.87 3.4,-1.19 7.7,-10.53 3.73,-13.17 -2.17,-2.69 1.13,-5.2 0.52,-8.39 1,-1.38 3.38,-5.56 4.57,-2.12 1.8,0.79 2.03,-6.26 4.78,-6.8 7.95,0.05 10.73,5.27 8.7,12.74 -4.91,0.75 -4.6,6.21 0.32,1.8 6.95,-5.72 5.5,9.62 -1.49,15.08 2.98,5.18 13.8,1.07 18.16,-0.11 1.57,-0.83 6.28,-1.53 6.26,-4.04 6.02,-0.14 2.99,-8.34 8.19,-6.79 2.58,-1.21 7.56,3.52 8.81,0 2.86,-0.29 4.05,-2.96 3.5,-5.63 0.14,-0.04 9.88,-8.03 6.49,-6.58 -4.92,2.24 -8.17,7.14 -13.27,7.76 -1.55,-1.97 -4.16,-0.49 -6.27,0.31 -1.27,-0.74 -5.97,-1.28 -4.46,1.17 -0.6,2.57 -9,2.95 -0.64,4.24 4.57,1.23 -3.8,3.11 -5.09,1.92 -1.26,1.12 -2.08,3.91 -4.25,1.38 -1.45,-0.67 -4.15,-0.28 -4.78,1.49 -2.01,0.03 -12.23,6.37 -8.6,0.85 1.31,-1.26 3.11,0.33 2.87,-2.55 8.5,-9.35 0.94,-8.15 7.97,-13.59 1.15,-1.97 -4.15,-3.63 -2.87,-5.74 2.46,1.44 12.57,9.36 10.62,0.96 -3,-4.68 -7.98,-6.84 -13.91,-8.18 -2.94,-1.87 -12.45,2.1 -12,-2.33 -0.6,-1.59 -5.68,-2.25 -1.92,-4.24 -2.44,-1.61 -2.3,-4.52 -3.4,-7.02z"/>
    <g>
     <path class="fil0" d="M1720.98 833.88c1.45,-0.96 2.88,-2.41 4.34,-3.85 13.47,-15.41 21.18,-30.82 27.92,-45.75 0.96,-6.74 0,-12.04 -7.23,-6.74 -5.77,0.97 -11.07,2.41 -17.33,2.89 -2.89,3.37 -6.25,0.48 -9.63,1.92 -5.29,3.85 -12.03,0 -14.44,-5.29 -0.49,0.48 -2.41,0 -2.89,-0.96l0.96 0c5.78,-1.45 0.96,-5.3 -1.92,-7.23 -3.86,-7.7 -13,-11.07 -18.29,-16.85 -4.82,-1.45 -3.86,-11.55 -7.23,-15.41 -5.29,-3.86 -11.07,-11.07 -8.19,-18.3 0,-8.18 -13.96,-14.45 -10.1,-18.78 -4.34,-8.19 -13.98,-30.81 -17.34,-33.22 -0.49,-0.49 -0.49,-2.88 -0.96,-4.33 3.37,2.88 4.81,7.22 8.18,11.07l2.41 -0.49c0.49,-1.92 0.96,-3.85 1.45,-5.29 0,3.37 5.29,3.37 8.66,10.59 13,17.34 2.89,10.11 15.41,21.67 3.86,2.88 3.37,10.11 3.86,15.89 2.88,4.33 7.7,6.74 11.56,11.07 1.44,2.41 2.88,9.15 5.29,11.07 3.86,1.92 4.81,7.22 5.29,10.6 0.49,0.48 0,2.4 -0.49,2.88 1.45,2.89 2.41,9.15 3.86,13 -0.49,0.49 0.97,3.38 0.97,3.86 0,0.49 2.4,1.45 2.4,1.45 1.45,0 5.29,-0.96 7.22,-0.96 8.19,-6.74 19.75,-3.38 26.49,-11.56 5.78,-2.41 13.96,-1.45 18.3,-7.23 -0.49,-3.37 4.81,-6.26 7.7,-5.78 2.41,-2.4 6.73,-2.4 9.63,-2.4 0.48,-3.86 4.82,-6.26 9.15,-6.26 0.48,-3.85 3.37,-7.22 7.7,-6.26 -1.92,-9.63 10.11,-13.48 13,-22.15l-0.96 0c-3.85,-6.26 -9.15,-9.15 -15.88,-10.6 -4.82,-3.37 -5.3,-9.62 -4.82,-15.4 -5.3,6.74 -12.52,16.37 -22.63,14.44 0,0.49 -3.37,1.45 -3.37,0.96 -3.86,-1.92 -5.78,-0.96 -4.82,-5.78 2.89,-1.92 1.93,-10.11 -2.41,-6.74 -2.4,6.74 -2.4,5.78 -5.29,-0.48 2.41,-3.86 -2.41,-6.74 -6.26,-8.19 0,-4.82 -6.26,-9.15 -6.74,-15.41 1.92,-0.96 2.89,-4.33 6.25,-4.82 1.45,1.92 6.74,0.49 6.74,2.41 6.26,4.33 4.82,12.04 11.56,15.41 0,0.49 -0.49,1.93 0.49,2.41 1.92,-4.33 10.1,3.86 14.44,4.82 4.81,-1.93 8.18,0.48 11.07,-3.86 6.25,-1.92 4.32,7.23 8.66,9.15 7.7,0.49 16.85,2.89 24.56,4.33 9.63,-1.92 19.25,0 28.89,-2.88 3.86,2.88 6.26,11.55 11.07,12.03 6.74,7.7 10.11,3.85 12.03,6.26 -0.96,1.92 -4.81,1.92 -6.25,2.88 0.96,2.89 4.33,3.85 5.78,6.74 4.33,4.81 10.11,2.41 13.96,-1.45 -0.95,-0.96 0.97,-8.18 1.93,-4.33 2.41,15.41 1.92,36.1 11.56,52 1.44,7.23 6.25,12.52 9.14,19.26 2.4,7.23 2.4,13.48 9.15,17.81 6.74,-1.45 5.78,-8.66 13,-7.7 -7.71,-1.44 0,-4.82 2.4,-9.15 -2.4,-6.74 0.49,-7.22 1.92,-12.51 2.41,-6.26 -5.29,-19.74 5.78,-19.74 0.97,-5.3 8.19,-0.96 7.7,-7.22 7.23,-2.89 13.96,-13.97 21.67,-17.82 8.67,-0.96 4.33,-10.59 9.63,-10.59 0,0 1.93,-1.45 2.88,-1.45l0.97 0.96c0,0.49 2.41,-1.92 2.88,-0.96l1.92 0.49c2.41,2.41 5.29,-2.41 7.23,-3.86 3.85,7.71 11.56,-12.04 12.52,6.74l0.96 0c0,0.49 0,0.49 -0.49,0.49 0.49,0.96 0.97,1.92 1.46,2.89 1.44,-0.48 2.4,2.41 2.88,3.37 4.33,0.49 6.73,4.34 4.33,8.19 1.45,1.92 2.4,-1.45 3.37,-0.49 2.41,2.41 2.88,10.11 2.88,14.44 -2.88,4.82 2.41,3.86 5.3,5.3 4.82,-1.92 6.26,-6.74 10.11,-9.15 5.78,8.67 3.86,17.34 7.71,24.56 1.92,1.45 3.37,6.74 0.95,7.7 0,1.92 4.34,4.33 0.97,9.15l0.48 0.48c1.92,1.45 0,2.89 -0.48,4.33 -108.82,41.89 -230.63,96.31 -357.26,150.71 -0.97,-7.7 -1.45,-14.44 -0.97,-22.63 -1.92,-4.33 -4.81,-6.26 -6.74,-10.11 -0.96,-2.41 -1.92,-3.86 -0.49,-4.82 0.97,-1.44 -1.44,-3.85 0.97,-5.29 1.92,-3.37 -4.33,-4.82 -3.86,-8.19 0.49,-6.74 5.78,-12.04 7.71,-19.25l1.92 -1.93 34.18 -30.81zm208.96 -31.3c0,-3.37 0.48,-8.66 -1.45,-11.07 1.92,0.96 2.89,-3.86 2.41,-5.3 6.26,2.42 11.07,10.6 10.6,17.34 0,8.67 -13.01,9.63 -11.56,-0.96z"/>
    </g>
    <path class="fil0" d="M829.65 473.04c1.21,5.94 -11.67,7.19 -6.16,12.11 2.99,-0.77 3.06,-0.45 1.8,1.91 1.17,2.2 4.76,7.87 6.8,5.94 4.24,0.77 -0.06,7.63 4.67,3.4 -2.94,11.22 4.46,15.11 3.08,2.13 -3.21,-5.2 -6.74,-10.99 -7.12,-16.25 -3.23,-2.11 -5.37,-3.26 -0.96,-5.2 3.48,-2.51 -2.44,0.16 -2.12,-4.04z"/>
    <path class="fil0" d="M2064.23 768.67c-6.33,2.01 -3.5,-2.84 -5.43,-5.62 -4.9,-1.52 -4.35,4.18 -4.28,7.67 -0.93,4.07 -4.95,9.44 -4.97,14.05 7.82,-2.99 15.65,-5.97 23.34,-8.81 -0.75,-0.92 -0.63,-1.24 -1.47,-2.28 -3.24,-0.8 -3.79,-4.92 -7.18,-5z"/>
    <path class="fil0" d="M2098.93 287c5.94,-1.46 15.52,-2.47 19.14,-5.72 -7.23,1.03 -2.47,-4.75 1.87,-3.65 4.57,0.66 6.88,2.93 11.15,3.36 -3.35,-3.51 -6.64,-7.05 -10.05,-10.5 -6.71,2.38 -6.52,6.58 -12.55,6.82 -4.52,4.72 -10.95,5.91 -16.98,8.65 -4.89,5.65 -5.44,7.86 1.37,2.29 2.89,-1.2 3.94,-1.08 6.04,-1.24z"/>
    <path class="fil0" d="M1763.11 535.3c-1.19,-3.01 -4.64,0.76 -6.01,-0.19 -3.87,-3.53 -8.99,-0.12 -12.81,1.93l-2.9 1.75c-1,4.05 -4.65,2.55 -4.08,4.08 0.78,1.56 -0.59,0.39 -1.37,0.39 -0.93,0.64 -5.36,1.87 -6.4,1.16 0.87,3.32 -4.07,8.02 -5.05,8.92 2.44,3.34 11.22,4.67 4.08,8.54 4.75,8.15 14.01,16.26 14.76,25.22 -2.39,-0.36 -3.04,4.53 -2.14,4.86l-2.9 1.94c0.24,0.87 0.99,2.75 0.38,3.69 0.15,1.83 0.33,4.42 0.78,6.21 10.49,4.16 17.19,8.62 29.89,6.2 -1.2,-3.54 3.15,-17.28 -3.11,-17.65 -3.49,2.11 -0.38,-4.22 1.74,-2.13 -2.21,-4.82 -9.66,-2.02 -4.08,-10.29 -0.21,0.54 7.1,2.66 6.4,1.74 1.03,-0.18 3.45,-0.85 4.46,-1.16 -1.01,-4.06 -8.46,-6.13 -5.82,-9.89 -3.73,-0.86 -6.57,4.28 -6.4,7.96 -4.23,-0.71 0.02,-9.42 -1.55,-11.84 -1.94,-1.42 -6.91,-2.54 -8.35,-4.08l0 -3.69c-0.29,-0.37 -4.09,-0.91 -2.13,-2.52 -0.09,-1.1 -3.79,-1.34 -4.27,-1.55 -0.91,-4.22 5.08,-1.53 7.18,-1.56 -7.16,-7.09 6.03,-7.78 12.4,-5.33 -4.55,-3.65 2.13,-8.49 -2.7,-12.71z"/>
   </g>
   <g>
    <path class="fil0" d="M3029.55 786.18l14.76 -99.24 270.37 0 14.75 99.24 -8.53 4.33c-2.84,-10.15 -6.5,-20.58 -10.69,-31.27 -4.33,-10.69 -9.34,-20.44 -15.03,-29.38 -5.82,-8.93 -12.32,-16.24 -19.63,-21.8 -7.45,-5.55 -15.7,-8.26 -24.91,-8.26 -10.15,0 -18.28,3.39 -24.37,10.02 -6.09,6.63 -9.07,15.3 -9.07,25.72l0 215.94c0,7.99 0.54,15.57 1.76,22.88 1.08,7.31 2.71,13.81 4.74,19.36 2.03,5.55 4.74,10.02 7.85,13.13 3.11,3.11 6.77,4.74 10.97,4.74l0 9.61 -126.05 0 0 -9.61c4.2,0 7.85,-1.63 10.97,-4.74 3.12,-3.12 5.82,-7.58 7.85,-13.13 2.03,-5.55 3.66,-12.05 4.87,-19.36 1.08,-7.31 1.63,-14.89 1.63,-22.88l0 -215.94c0,-10.43 -2.98,-19.09 -9.07,-25.72 -6.09,-6.63 -14.21,-10.02 -24.37,-10.02 -9.34,0 -17.6,2.71 -24.91,8.26 -7.31,5.55 -13.81,12.86 -19.5,21.8 -5.82,8.94 -10.83,18.69 -15.03,29.38 -4.33,10.7 -7.99,21.12 -10.83,31.27l-8.53 -4.33zm304.75 -99.24l150.82 0 0 9.48c-4.74,0 -9.48,1.08 -14.21,3.12 -4.74,2.03 -8.53,5.55 -11.24,10.42 -2.71,5.01 -3.79,11.78 -3.39,20.31 0.41,8.66 3.52,19.5 9.34,32.49l59.71 139.04 60.65 -214.86 23.42 0 82.99 230.56c8.26,-19.63 16.38,-39.13 24.24,-58.22 7.72,-19.09 14.62,-37.1 20.71,-53.75 6.09,-16.65 10.97,-31.54 14.89,-44.68 3.79,-13 5.69,-23.29 5.69,-31 0,-10.42 -3.25,-18.68 -9.75,-24.64 -6.64,-5.82 -13.4,-8.8 -20.31,-8.8l0 -9.48 93.55 0 0 9.48c-3.79,0.68 -7.99,2.98 -12.59,7.18 -4.74,4.2 -9.34,9.34 -14.08,15.7 -4.74,6.36 -9.34,13.54 -13.81,21.53 -4.47,7.99 -8.53,16.11 -12.05,24.37l-104.65 256.01 -12.86 0 -82.18 -229.21 -64.85 229.21 -13 0 -112.23 -270.37c-6.09,-14.21 -12.86,-26.54 -20.44,-36.69 -7.72,-10.15 -15.84,-16.11 -24.37,-17.74l0 -9.48zm624.31 -2.98c10.7,0 20.99,0.81 30.73,2.44 9.75,1.63 18.82,3.25 27.08,5.01 8.26,1.76 15.7,3.39 22.61,5.01 6.91,1.63 12.73,2.44 17.47,2.44 5.42,0 9.88,-0.95 13.4,-2.71 3.38,-1.76 5.69,-3.79 6.63,-6.36l9.48 0 0 106.41 -9.07 2.98c-3.38,-11.24 -8.12,-22.88 -14.21,-34.93 -6.09,-12.05 -13.4,-23.29 -21.93,-33.44 -8.66,-10.15 -18.55,-18.55 -29.65,-25.05 -11.24,-6.5 -23.69,-9.75 -37.37,-9.75 -14.22,0 -27.75,3.79 -40.48,11.37 -12.86,7.72 -23.83,18.01 -33.03,30.87 -9.2,12.86 -16.51,27.89 -21.93,45.08 -5.42,17.2 -8.12,35.34 -8.12,54.43 0,20.99 3.25,40.62 9.88,58.76 6.5,18.14 15.43,33.85 26.67,47.25 11.24,13.4 24.64,23.96 40.08,31.54 15.43,7.72 31.95,11.51 49.41,11.51 8.26,0 15.57,-0.68 21.93,-1.9l0 -63.5c0,-8.26 -0.81,-16.11 -2.57,-23.29 -1.76,-7.18 -4.06,-13.54 -7.04,-19.09 -3.11,-5.55 -6.77,-9.88 -11.1,-13.13 -4.33,-3.11 -9.21,-4.74 -14.62,-4.74l0 -9.48 131.46 0 0 9.48c-4.2,0 -7.85,1.63 -10.97,4.74 -3.25,3.25 -5.96,7.58 -7.99,13.13 -2.03,5.55 -3.66,11.91 -4.74,19.09 -1.08,7.18 -1.63,15.03 -1.63,23.29l0 25.72c-4.47,11.51 -10.83,21.93 -19.09,31.27 -8.26,9.34 -18.14,17.47 -29.38,24.37 -11.37,6.91 -24.1,12.18 -38.04,15.97 -13.94,3.93 -28.97,5.82 -44.95,5.82 -23.83,0 -45.62,-4.2 -65.39,-12.46 -19.77,-8.26 -36.69,-20.04 -50.91,-35.2 -14.22,-15.03 -25.18,-33.03 -32.9,-53.88 -7.72,-20.85 -11.64,-43.73 -11.64,-68.51 0,-24.78 3.93,-47.79 11.91,-68.78 7.99,-20.99 18.96,-38.99 33.17,-54.02 14.22,-15.03 31.27,-26.67 51.18,-35.2 19.9,-8.39 41.7,-12.59 65.66,-12.59z"/>
    <path class="fil0" d="M2949.62 1349.72l0 -141.72 38.37 0 0 -28.94 -109.74 0 0 28.94 38.08 0 0 141.72 33.29 0zm130.77 -71.88c10.74,-2.1 16.9,-5.15 23.5,-10.73 9.5,-8.2 15.38,-22.27 15.38,-37.64 0,-15.09 -6.38,-29.67 -16.9,-38.37 -9.43,-7.98 -24.51,-12.04 -43.45,-12.04l-49.39 0 0 170.66 33.22 0 0 -68.54 4.35 0 46.06 68.54 40.98 0 -53.75 -71.88zm-37.64 -20.24l0 -51.71 10.23 0c21.04,0 31.99,8.7 31.99,25.6 0,16.9 -11.46,26.11 -32.49,26.11l-9.72 0zm223.61 56.07l14.58 36.05 35.61 0 -71.66 -174.22 -25.1 0 -73.91 174.22 35.25 0 15.38 -36.05 69.85 0zm-10.52 -26.91l-48.59 0 24.8 -61.43 23.79 61.43zm84.46 -107.71l-36.26 0 72.38 175.01 17.91 0 73.69 -175.01 -36.12 0 -46.06 114.6 -45.55 -114.6zm243.09 28.94l0 -28.94 -94.36 0 0 170.66 94.36 0 0 -28.94 -61.14 0 0 -46.06 58.9 0 0 -28.87 -58.9 0 0 -37.86 61.14 0zm65.49 -28.94l-33.22 0 0 170.66 85.66 0 0 -28.94 -52.44 0 0 -141.72zm172.69 66l0 -66 -33.22 0 0 170.66 33.22 0 0 -75.72 72.17 0 0 75.72 33.29 0 0 -170.66 -33.29 0 0 66 -72.17 0zm177.84 -66l-33.22 0 0 104.37c0,19.95 3.84,34.02 12.55,45.55 11.75,15.38 32.71,24.59 55.99,24.59 23.28,0 44.24,-9.21 56.07,-24.59 8.7,-11.53 12.55,-25.6 12.55,-45.55l0 -104.37 -33.29 0 0 97.77c0,17.34 -1.02,22.99 -5.37,30.39 -5.66,9.72 -17.19,15.88 -29.96,15.88 -12.76,0 -24.3,-6.16 -29.95,-15.88 -4.35,-7.4 -5.37,-13.05 -5.37,-30.39l0 -97.77zm143.1 170.66l57.52 0c18.93,0 32.49,-4.06 42.5,-13.06 9.72,-8.7 15.08,-21.47 15.08,-35.03 0,-12.55 -4.57,-24.59 -12.26,-32.27 -5.37,-5.58 -10.73,-8.2 -22.27,-10.74 6.67,-4.06 9.43,-6.38 12.26,-10.23 3.85,-6.16 6.38,-15.09 6.38,-24.3 0,-14.07 -5.87,-27.42 -15.3,-34.82 -8.71,-6.89 -22.05,-10.23 -41.7,-10.23l-42.21 0 0 170.66zm33.22 -99.51l0 -44.32 10.01 0c16.61,0 25.31,7.47 25.31,22.05 0,14.8 -8.7,22.27 -25.82,22.27l-9.5 0zm0 72.67l0 -47.36 12.55 0c13.85,0 19.22,1.02 25.1,4.86 6.38,3.85 9.94,10.74 9.94,18.93 0,15.88 -10.74,23.57 -33.22,23.57l-14.36 0z"/>
   </g>
  </g>
 </g>
</svg>
